<svg width="446" height="91" viewBox="0 0 446 91" fill="none" xmlns="http://www.w3.org/2000/svg">
<path d="M5.38388 58.7525C5.27343 57.1923 4.19666 48.1945 2.15356 31.7588C2.15356 30.7559 2.48488 29.8923 3.14751 29.168C3.81014 28.388 4.63842 27.998 5.63236 27.998C6.79196 27.998 7.53742 28.7502 7.86874 30.2545L9.35965 42.2053C10.1879 49.1694 10.7954 53.9053 11.1819 56.4125C12.4519 54.0166 13.3906 52.0944 13.9981 50.6461L16.1516 46.0496C17.5873 43.3753 19.0506 42.0382 20.5415 42.0382C21.7011 42.0382 22.8607 43.4589 24.0203 46.3003C24.186 46.5787 24.3516 46.9409 24.5173 47.3868C24.6829 47.7767 24.9038 48.1945 25.1799 48.6403C27.4991 53.5987 28.7967 56.301 29.0729 56.7468C31.1712 47.0525 32.6896 38.1103 33.6284 29.9202C33.6835 29.2516 34.0703 28.6387 34.788 28.0816C35.5612 27.4687 36.2789 27.1623 36.9416 27.1623C37.6042 27.1623 38.1563 27.3573 38.5981 27.7473C39.04 28.0816 39.2608 28.5552 39.2608 29.168C39.2608 32.0652 37.2178 43.6537 33.1315 63.9339C32.8001 65.3823 31.6405 66.1068 29.6527 66.1068C28.7692 66.1068 28.0237 65.633 27.4163 64.6861C26.6432 63.4045 25.2904 60.8418 23.3577 56.9975C22.0876 54.3232 20.9833 52.0944 20.0445 50.3118C17.5597 56.273 15.5442 60.4239 13.9981 62.7639C12.5071 65.1039 10.961 66.2739 9.35965 66.2739C8.36571 66.2739 7.48221 65.3823 6.70914 63.5996C5.9913 61.9282 5.54954 60.3124 5.38388 58.7525ZM68.6649 28.7502C69.0513 29.4745 69.217 30.2545 69.1619 31.0902V49.2253L69.0791 61.5939C69.0791 64.7137 68.0851 66.2739 66.0972 66.2739C64.2199 66.2739 63.3088 65.4658 63.3639 63.8503C63.5846 61.2317 63.6952 56.5237 63.6952 49.7268C62.5907 49.838 61.4311 49.8939 60.2164 49.8939C57.7867 49.8939 54.4461 49.6708 50.1941 49.2253V50.9803C50.1941 51.7045 50.4149 55.9387 50.8568 63.6832C50.9119 64.5189 50.6083 65.1595 49.9457 65.6053C49.283 66.0508 48.5653 66.2739 47.7921 66.2739C47.1295 66.2739 46.5774 66.0788 46.1355 65.6889C45.6937 65.2431 45.4452 64.7417 45.3901 64.1846C44.7826 58.3902 44.479 53.3759 44.479 49.1418L44.5618 44.9632L44.8931 31.0066C44.9482 30.338 45.3073 29.7809 45.9699 29.3352C46.6325 28.8338 47.378 28.583 48.2063 28.583C49.6421 28.583 50.3598 29.1959 50.3598 30.4216L50.1941 43.5425C53.4522 44.0995 56.0473 44.3502 57.98 44.2946C59.9128 44.2387 60.9618 44.2111 61.1275 44.2111H63.6952C63.5295 41.0909 63.4467 36.4666 63.4467 30.338C63.4467 29.558 63.8057 28.9173 64.5235 28.4159C65.2412 27.9145 66.0421 27.6638 66.9255 27.6638C67.6987 27.6638 68.2785 28.0259 68.6649 28.7502ZM80.3342 65.4382C79.561 65.9952 78.7604 66.2739 77.9322 66.2739C76.3858 66.2739 75.613 65.6053 75.613 64.2682L75.9443 30.2545C75.9443 29.4745 76.1927 28.8616 76.6897 28.4159C77.2418 27.9145 77.9322 27.6638 78.7604 27.6638C79.5887 27.6638 80.2787 27.8588 80.8312 28.2488C81.4383 28.6945 81.7697 29.3631 81.8251 30.2545C81.8802 30.8673 81.9079 32.9009 81.9079 36.3553C81.9079 51.5653 81.7974 60.6187 81.5766 63.5161C81.5212 64.1846 81.107 64.8252 80.3342 65.4382ZM111.013 29.0845C113.056 30.0316 114.078 31.313 114.078 32.9289C114.078 33.6531 113.829 34.2661 113.332 34.7675C112.89 35.213 112.421 35.4361 111.924 35.4361C111.041 35.4361 109.633 34.9902 107.7 34.0989C105.878 33.2073 104.11 32.7618 102.399 32.7618C100.797 32.7618 99.1407 33.2073 97.429 34.0989C95.7174 34.9346 94.8614 35.9931 94.8614 37.2746C94.8614 38.5558 95.9104 39.6982 98.0088 40.7011C99.9416 41.648 102.426 42.5117 105.463 43.2918C108.445 44.0716 110.35 44.7961 111.179 45.4646C112.007 46.0217 112.697 46.5787 113.249 47.1361C113.746 47.5816 114.188 48.4452 114.575 49.7268C115.016 50.9524 115.237 52.4287 115.237 54.1561C115.237 58.2231 113.912 61.2596 111.261 63.2653C108.666 65.2151 105.546 66.1903 101.902 66.1903C98.3124 66.1903 95.2204 65.6053 92.625 64.4353C90.0296 63.2653 88.732 61.8167 88.732 60.0896C88.732 59.3095 89.0082 58.613 89.5603 58.0003C90.1124 57.3318 90.7476 56.9975 91.4654 56.9975C91.631 56.9975 91.8795 57.0531 92.2108 57.1646C97.3462 59.2259 100.604 60.2568 101.985 60.2568C104.304 60.2568 106.098 59.6718 107.368 58.5018C108.694 57.3318 109.356 55.7995 109.356 53.9053C109.356 52.4011 108.887 51.2031 107.948 50.3118C107.009 49.4201 105.85 48.7516 104.469 48.3061C103.144 47.8046 101.322 47.3032 99.0028 46.8018L95.9381 46.0496C93.8397 45.4367 92.128 44.4618 90.8028 43.1246C89.367 41.6759 88.6492 39.6702 88.6492 37.1075C88.6492 34.4888 89.9745 32.2602 92.625 30.4216C95.2204 28.5273 98.4507 27.5802 102.316 27.5802C106.071 27.5802 108.97 28.0816 111.013 29.0845ZM122.227 31.1738C122.338 28.8338 125.54 27.6638 131.835 27.6638C135.811 27.6638 138.986 28.5552 141.361 30.338C143.79 32.0652 145.005 34.4052 145.005 37.3582C145.005 41.9267 143.597 45.2975 140.781 47.4703C138.738 49.0302 135.977 49.8103 132.498 49.8103C131.007 49.8103 129.571 49.6988 128.191 49.4761C128.357 52.9861 128.439 56.0223 128.439 58.5853C128.439 60.2008 128.384 62.123 128.274 64.3518C128.163 65.633 127.363 66.2739 125.872 66.2739C124.436 66.2739 123.47 65.9952 122.973 65.4382C122.476 64.8252 122.227 63.878 122.227 62.5968V31.1738ZM131.256 33.2632C130.538 33.2632 129.461 33.3744 128.025 33.5975C127.915 34.9346 127.86 37.0795 127.86 40.0325V43.5425C129.074 43.7096 130.4 43.7932 131.835 43.7932C134.155 43.7932 135.894 43.4589 137.054 42.7903C138.655 41.8431 139.456 40.1717 139.456 37.7761V37.0239C139.345 35.5752 138.02 34.5168 135.48 33.8482C133.989 33.458 132.581 33.2632 131.256 33.2632ZM167.461 47.5539L159.178 47.4703L159.344 58.4182C159.344 59.9225 159.316 60.7023 159.261 60.7582L173.591 60.5075C175.192 60.6746 175.993 61.3708 175.993 62.5968C175.993 64.9368 174.916 66.1068 172.762 66.1068L156.528 66.2739C155.148 66.2739 154.292 65.7445 153.96 64.6861C153.629 63.6273 153.463 62.2066 153.463 60.4239V46.5511C152.745 46.1608 152.386 45.5482 152.386 44.7125C152.386 43.988 152.69 43.3194 153.298 42.7068C153.132 38.3611 153.049 34.4052 153.049 30.8395C153.049 28.778 154.292 27.7195 156.776 27.6638H159.096L173.591 27.9145H173.673C175.441 28.193 176.324 29.0288 176.324 30.4216C176.324 31.4802 175.993 32.2323 175.33 32.6782C173.894 33.458 170.443 33.8482 164.976 33.8482C162.989 33.8482 160.946 33.7646 158.847 33.5975C158.847 38.8345 158.875 41.648 158.93 42.0382C160.366 42.0938 164.59 42.1218 171.603 42.1218C173.314 42.3445 174.17 43.1246 174.17 44.4618C174.17 45.1303 173.894 45.7709 173.342 46.3839C172.79 46.9966 172.182 47.3588 171.52 47.4703C171.244 47.4703 170.802 47.498 170.195 47.5539C169.587 47.5539 168.676 47.5539 167.461 47.5539ZM189.815 53.1532C189.871 54.7687 189.981 58.0839 190.147 63.0982V63.1818C190.147 64.0175 189.76 64.7417 188.987 65.3546C188.214 65.9673 187.358 66.2739 186.419 66.2739C185.204 66.2739 184.597 65.7166 184.597 64.6025C184.376 62.3181 184.266 51.9273 184.266 33.4303C184.266 31.6473 185.315 30.2545 187.413 29.2516C189.511 28.2488 192.355 27.7473 195.945 27.7473C199.479 27.7473 202.598 28.6387 205.304 30.4216C208.01 32.1487 209.363 34.2937 209.363 36.8568C209.363 38.0268 208.838 39.3639 207.789 40.8682C206.795 42.3725 205.663 43.5981 204.393 44.5453C203.289 45.3251 201.604 46.3559 199.341 47.6375C197.077 48.9187 195.724 49.5873 195.282 49.6432C198.65 51.8161 201.743 54.2396 204.559 56.9139C207.265 59.5882 208.617 61.7887 208.617 63.5161C208.617 64.7417 207.955 65.5774 206.63 66.0232C206.133 66.1903 205.774 66.2739 205.553 66.2739C204.725 66.2739 203.813 65.6609 202.819 64.4353C202.101 63.4881 200.335 61.7611 197.518 59.2539C194.647 56.7468 192.079 54.7131 189.815 53.1532ZM189.898 34.1825C189.843 35.9651 189.815 39.8094 189.815 45.7153C191.582 45.7153 194.316 44.8237 198.015 43.0411C201.66 41.2025 203.565 39.5031 203.731 37.9432C203.731 36.5501 202.93 35.4637 201.329 34.6839C199.782 33.8482 198.015 33.4303 196.028 33.4303C193.929 33.4303 191.886 33.6811 189.898 34.1825Z" fill="white"/>
<path d="M250.274 9.65569L250.154 71.2114L243.516 84.6063L237.18 70.907L237.421 9.65569C237.421 6.06343 240.287 3.17136 243.848 3.17136C247.378 3.2018 250.244 6.09387 250.274 9.65569Z" fill="white" stroke="white" stroke-width="0.874643"/>
<path d="M293.481 58.6014C289.284 50.5786 284.894 43.9485 280.311 38.7114L279.4 59.0193L279.317 60.8579C279.317 61.8051 279.289 62.3901 279.234 62.6129C279.013 64.1171 278.047 64.8693 276.335 64.8693C275.673 64.8693 275.065 64.6465 274.513 64.2007C274.016 63.6993 273.74 63.0863 273.685 62.3621L274.347 38.9621V36.2043C274.347 34.143 274.485 32.5271 274.761 31.3571C275.203 29.8529 276.197 29.1007 277.743 29.1007C278.572 29.1007 279.566 29.6578 280.725 30.7721C281.885 31.8307 283.541 33.7528 285.695 36.5386C290.885 43.0015 294.861 49.1579 297.622 55.0079C297.567 48.155 297.374 42.1379 297.042 36.9564L296.628 30.1036V29.435C297.07 27.3178 298.202 26.2593 300.024 26.2593C300.742 26.2593 301.405 26.5936 302.012 27.2621C302.62 27.875 302.923 28.655 302.923 29.6021L303.337 60.6907C303.337 63.5877 302.178 65.0364 299.859 65.0364C298.478 65.0364 297.401 64.563 296.628 63.6157C295.689 62.4457 294.972 61.3873 294.475 60.44C293.978 59.4928 293.646 58.8801 293.481 58.6014ZM314.555 31.0229C317.537 28.07 321.652 26.5936 326.896 26.5936C331.037 26.5936 334.35 28.2093 336.835 31.4407C339.32 34.6164 340.562 38.9342 340.562 44.3943C340.562 49.8544 339.183 54.618 336.421 58.685C333.716 62.6964 330.209 64.7021 325.902 64.7021C321.263 64.7021 317.481 62.6964 314.555 58.685C311.628 54.618 310.165 49.7149 310.165 43.9764C310.165 38.2936 311.628 33.9758 314.555 31.0229ZM318.696 53.9214C320.629 57.0415 323.226 58.6014 326.482 58.6014C328.361 58.6014 329.96 57.7937 331.286 56.1779C333.496 53.448 334.599 49.8264 334.599 45.3136C334.599 40.7451 333.936 37.4579 332.611 35.4521C331.343 33.3908 329.132 32.36 325.985 32.36C322.783 32.36 320.298 33.3629 318.531 35.3686C316.763 37.3187 315.88 40.1321 315.88 43.8093C315.88 47.4864 316.819 50.8573 318.696 53.9214ZM377.686 28.0143C377.686 30.2986 375.092 31.4407 369.9 31.4407L364.433 31.2736L364.267 51.08L364.35 57.3479C364.407 58.4623 364.433 60.0221 364.433 62.0279C364.433 62.808 364.076 63.4765 363.356 64.0336C362.694 64.535 361.948 64.7857 361.12 64.7857C359.686 64.7857 358.966 64.0056 358.966 62.4457C358.801 56.93 358.718 51.6094 358.718 46.4836C358.718 40.3549 358.883 35.3686 359.215 31.5243C355.516 31.8029 352.149 31.9421 349.11 31.9421C347.399 31.9421 346.542 31.2179 346.542 29.7693C346.542 29.1007 346.848 28.4321 347.453 27.7636C348.116 27.095 348.836 26.7328 349.607 26.6771L375.449 25.8414C376.94 26.1757 377.686 26.9 377.686 28.0143ZM398.45 46.0657L390.167 45.9821L390.333 56.93C390.333 58.4343 390.304 59.2144 390.25 59.27L404.579 59.0193C406.182 59.1864 406.981 59.883 406.981 61.1086C406.981 63.4486 405.905 64.6186 403.751 64.6186L387.517 64.7857C386.137 64.7857 385.28 64.2563 384.949 63.1979C384.618 62.1394 384.452 60.7187 384.452 58.9357V45.0629C383.735 44.673 383.375 44.06 383.375 43.2243C383.375 42.5001 383.678 41.8315 384.286 41.2186C384.121 36.8729 384.038 32.917 384.038 29.3514C384.038 27.29 385.28 26.2314 387.765 26.1757H390.084L404.579 26.4264H404.662C406.43 26.705 407.313 27.5407 407.313 28.9336C407.313 29.9921 406.981 30.7443 406.319 31.19C404.882 31.97 401.432 32.36 395.965 32.36C393.977 32.36 391.935 32.2764 389.836 32.1093C389.836 37.3463 389.865 40.1601 389.919 40.55C391.355 40.6056 395.58 40.6336 402.591 40.6336C404.302 40.8563 405.159 41.6364 405.159 42.9736C405.159 43.6421 404.882 44.2828 404.331 44.8957C403.78 45.5087 403.171 45.8706 402.509 45.9821C402.231 45.9821 401.792 46.0101 401.183 46.0657C400.575 46.0657 399.664 46.0657 398.45 46.0657ZM437.287 27.5964C439.329 28.5436 440.352 29.825 440.352 31.4407C440.352 32.165 440.103 32.7779 439.606 33.2793C439.163 33.7251 438.695 33.9479 438.198 33.9479C437.316 33.9479 435.908 33.502 433.974 32.6107C432.152 31.7193 430.384 31.2736 428.673 31.2736C427.07 31.2736 425.414 31.7193 423.703 32.6107C421.992 33.4464 421.135 34.5049 421.135 35.7864C421.135 37.068 422.184 38.21 424.283 39.2129C426.217 40.1601 428.702 41.0235 431.738 41.8036C434.719 42.5837 436.624 43.3079 437.453 43.9764C438.281 44.5335 438.972 45.0908 439.523 45.6479C440.02 46.0937 440.463 46.957 440.849 48.2386C441.291 49.4642 441.511 50.9408 441.511 52.6679C441.511 56.7349 440.186 59.7714 437.536 61.7771C434.939 63.7272 431.82 64.7021 428.176 64.7021C424.586 64.7021 421.495 64.1171 418.899 62.9471C416.303 61.7771 415.006 60.3285 415.006 58.6014C415.006 57.8213 415.283 57.1251 415.834 56.5121C416.386 55.8436 417.023 55.5093 417.739 55.5093C417.905 55.5093 418.154 55.5649 418.485 55.6764C423.62 57.7378 426.879 58.7686 428.259 58.7686C430.578 58.7686 432.371 58.1836 433.643 57.0136C434.968 55.8436 435.63 54.3113 435.63 52.4171C435.63 50.9129 435.162 49.7149 434.222 48.8236C433.283 47.9323 432.123 47.2637 430.744 46.8179C429.418 46.3164 427.596 45.815 425.277 45.3136L422.212 44.5614C420.113 43.9485 418.402 42.9736 417.077 41.6364C415.64 40.1878 414.923 38.182 414.923 35.6193C414.923 33.0006 416.249 30.7721 418.899 28.9336C421.495 27.0393 424.726 26.0921 428.59 26.0921C432.346 26.0921 435.245 26.5936 437.287 27.5964Z" fill="white"/>
<path d="M18 81.5C23.3551 81.5 28.9269 79.9327 33.969 79.2407C41.0962 78.2626 48.7796 78.0057 55.9845 77.2407C59.7408 76.8419 64.2278 77.1667 68.0775 77.1667C70.5019 77.1667 73.3579 76.9099 75.5194 77.5C78.1931 78.23 74.3758 81.396 73.814 82C72.469 83.4458 67.852 83.5 74.5891 83.5C116.319 83.5 157.062 80.2004 198 76.5" stroke="#CCB900" stroke-width="3" stroke-linecap="round"/>
</svg>
