<svg width="160" height="32" viewBox="0 0 160 32" fill="none" xmlns="http://www.w3.org/2000/svg">
<path d="M1.93132 20.712C1.8917 20.1573 1.50541 16.9581 0.772461 11.1142C0.772461 10.7577 0.891318 10.4506 1.12903 10.1931C1.36675 9.91576 1.66389 9.77709 2.02046 9.77709C2.43646 9.77709 2.70389 10.0445 2.82275 10.5794L3.3576 14.8286C3.65475 17.3047 3.87266 18.9886 4.01132 19.88C4.46694 19.0281 4.8037 18.3447 5.0216 17.8297L5.79418 16.1954C6.30923 15.2446 6.83418 14.7692 7.36903 14.7692C7.78503 14.7692 8.20103 15.2743 8.61703 16.2846C8.67646 16.3835 8.73589 16.5123 8.79532 16.6709C8.85475 16.8095 8.93398 16.9581 9.03303 17.1166C9.86503 18.8796 10.3306 19.8404 10.4296 19.9989C11.1824 16.552 11.7271 13.3726 12.0639 10.4605C12.0837 10.2228 12.2224 10.0049 12.4799 9.80681C12.7573 9.5889 13.0147 9.47995 13.2525 9.47995C13.4902 9.47995 13.6882 9.54929 13.8467 9.68795C14.0053 9.80681 14.0845 9.97518 14.0845 10.1931C14.0845 11.2232 13.3515 15.3436 11.8856 22.5543C11.7667 23.0693 11.3507 23.3269 10.6376 23.3269C10.3207 23.3269 10.0532 23.1584 9.83532 22.8217C9.55798 22.3661 9.07266 21.4549 8.37932 20.088C7.9237 19.1371 7.52751 18.3447 7.19075 17.7109C6.29932 19.8304 5.57627 21.3063 5.0216 22.1383C4.48675 22.9703 3.93208 23.3863 3.3576 23.3863C3.00103 23.3863 2.68408 23.0693 2.40675 22.4354C2.14923 21.8412 1.99075 21.2666 1.93132 20.712ZM24.633 10.0445C24.7717 10.302 24.8311 10.5794 24.8113 10.8765V17.3246L24.7816 21.7223C24.7816 22.8315 24.425 23.3863 23.7119 23.3863C23.0384 23.3863 22.7115 23.099 22.7313 22.5246C22.8105 21.5935 22.8502 19.9195 22.8502 17.5029C22.4539 17.5424 22.0379 17.5623 21.6022 17.5623C20.7305 17.5623 19.5321 17.483 18.0067 17.3246V17.9486C18.0067 18.2061 18.0859 19.7115 18.2445 22.4651C18.2642 22.7623 18.1553 22.9901 17.9176 23.1486C17.6799 23.307 17.4224 23.3863 17.145 23.3863C16.9073 23.3863 16.7093 23.3169 16.5507 23.1783C16.3922 23.0198 16.3031 22.8415 16.2833 22.6434C16.0654 20.5832 15.9565 18.8004 15.9565 17.2949L15.9862 15.8092L16.105 10.8468C16.1248 10.6091 16.2536 10.411 16.4913 10.2525C16.729 10.0742 16.9965 9.98509 17.2936 9.98509C17.8087 9.98509 18.0662 10.203 18.0662 10.6388L18.0067 15.304C19.1755 15.5021 20.1065 15.5912 20.7999 15.5714C21.4933 15.5516 21.8696 15.5417 21.929 15.5417H22.8502C22.7907 14.4324 22.761 12.7881 22.761 10.6091C22.761 10.3318 22.8898 10.104 23.1473 9.92566C23.4048 9.74738 23.6921 9.65824 24.009 9.65824C24.2864 9.65824 24.4944 9.787 24.633 10.0445ZM28.8193 23.0891C28.5419 23.2872 28.2547 23.3863 27.9576 23.3863C27.4029 23.3863 27.1256 23.1486 27.1256 22.6732L27.2445 10.5794C27.2445 10.302 27.3336 10.0841 27.5119 9.92566C27.7099 9.74738 27.9576 9.65824 28.2547 9.65824C28.5519 9.65824 28.7994 9.72757 28.9976 9.86624C29.2154 10.0247 29.3343 10.2624 29.3542 10.5794C29.3739 10.7973 29.3839 11.5204 29.3839 12.7486C29.3839 18.1566 29.3442 21.3755 29.265 22.4057C29.2451 22.6434 29.0966 22.8712 28.8193 23.0891ZM39.8251 10.1634C40.5581 10.5001 40.9246 10.9558 40.9246 11.5303C40.9246 11.7878 40.8354 12.0057 40.6571 12.184C40.4986 12.3424 40.3303 12.4217 40.152 12.4217C39.8351 12.4217 39.3299 12.2632 38.6366 11.9463C37.9829 11.6293 37.3489 11.4709 36.7349 11.4709C36.1603 11.4709 35.5661 11.6293 34.952 11.9463C34.3379 12.2434 34.0309 12.6198 34.0309 13.0754C34.0309 13.531 34.4072 13.9372 35.16 14.2937C35.8534 14.6304 36.7448 14.9375 37.8343 15.2149C38.904 15.4921 39.5874 15.7497 39.8846 15.9874C40.1817 16.1855 40.4294 16.3835 40.6274 16.5817C40.8057 16.7401 40.9642 17.0472 41.1029 17.5029C41.2614 17.9386 41.3406 18.4636 41.3406 19.0777C41.3406 20.5238 40.8651 21.6034 39.9143 22.3166C38.9832 23.0098 37.864 23.3566 36.5566 23.3566C35.2689 23.3566 34.1597 23.1486 33.2286 22.7326C32.2975 22.3166 31.832 21.8015 31.832 21.1874C31.832 20.9101 31.9311 20.6624 32.1291 20.4446C32.3272 20.2069 32.5551 20.088 32.8126 20.088C32.872 20.088 32.9611 20.1078 33.08 20.1474C34.9223 20.8803 36.0911 21.2469 36.5863 21.2469C37.4183 21.2469 38.0621 21.0389 38.5177 20.6229C38.9931 20.2069 39.2309 19.6621 39.2309 18.9886C39.2309 18.4537 39.0625 18.0278 38.7257 17.7109C38.3889 17.3938 37.9729 17.1561 37.4777 16.9977C37.0023 16.8194 36.3486 16.6411 35.5166 16.4629L34.4171 16.1954C33.6643 15.9775 33.0503 15.6309 32.5749 15.1554C32.0598 14.6403 31.8023 13.9272 31.8023 13.016C31.8023 12.0849 32.2777 11.2925 33.2286 10.6388C34.1597 9.96529 35.3185 9.62852 36.7051 9.62852C38.0522 9.62852 39.0922 9.80681 39.8251 10.1634ZM43.8482 10.9062C43.8878 10.0742 45.0368 9.65824 47.2951 9.65824C48.7214 9.65824 49.8603 9.97519 50.7122 10.6091C51.5838 11.2232 52.0197 12.0552 52.0197 13.1052C52.0197 14.7295 51.5145 15.928 50.5042 16.7006C49.7712 17.2552 48.7808 17.5326 47.5328 17.5326C46.998 17.5326 46.4829 17.4929 45.9877 17.4137C46.0471 18.6617 46.0768 19.7413 46.0768 20.6526C46.0768 21.227 46.0569 21.9104 46.0174 22.7029C45.9777 23.1584 45.6905 23.3863 45.1557 23.3863C44.6406 23.3863 44.2939 23.2872 44.1157 23.0891C43.9374 22.8712 43.8482 22.5344 43.8482 22.0789V10.9062ZM47.0871 11.6492C46.8295 11.6492 46.4432 11.6887 45.9282 11.768C45.8886 12.2434 45.8688 13.0061 45.8688 14.056V15.304C46.3046 15.3634 46.78 15.3931 47.2951 15.3931C48.1271 15.3931 48.7511 15.2743 49.1671 15.0366C49.7415 14.6998 50.0288 14.1055 50.0288 13.2537V12.9863C49.9891 12.4712 49.5137 12.0949 48.6025 11.8572C48.0677 11.7184 47.5625 11.6492 47.0871 11.6492ZM60.0757 16.7303L57.1042 16.7006L57.1637 20.5931C57.1637 21.128 57.1537 21.4053 57.1339 21.4251L62.2745 21.336C62.849 21.3954 63.1362 21.643 63.1362 22.0789C63.1362 22.9109 62.75 23.3269 61.9774 23.3269L56.1534 23.3863C55.6582 23.3863 55.3511 23.1981 55.2322 22.8217C55.1134 22.4453 55.0539 21.9401 55.0539 21.3063V16.3737C54.7965 16.235 54.6677 16.0172 54.6677 15.72C54.6677 15.4624 54.7766 15.2247 54.9945 15.0069C54.9351 13.4617 54.9054 12.0552 54.9054 10.7874C54.9054 10.0544 55.3511 9.67804 56.2425 9.65824H57.0745L62.2745 9.74738H62.3042C62.9382 9.84643 63.2551 10.1436 63.2551 10.6388C63.2551 11.0152 63.1362 11.2826 62.8985 11.4412C62.3834 11.7184 61.1454 11.8572 59.1842 11.8572C58.4711 11.8572 57.7382 11.8274 56.9854 11.768C56.9854 13.6301 56.9953 14.6304 57.0151 14.7692C57.5302 14.7889 59.0456 14.7989 61.5614 14.7989C62.1754 14.8781 62.4825 15.1554 62.4825 15.6309C62.4825 15.8686 62.3834 16.0963 62.1854 16.3143C61.9873 16.5321 61.7694 16.6609 61.5317 16.7006C61.4326 16.7006 61.2742 16.7104 61.0562 16.7303C60.8383 16.7303 60.5114 16.7303 60.0757 16.7303ZM68.0951 18.7212C68.1149 19.2956 68.1545 20.4743 68.214 22.2572V22.2869C68.214 22.584 68.0752 22.8415 67.798 23.0594C67.5206 23.2773 67.2135 23.3863 66.8768 23.3863C66.4409 23.3863 66.2231 23.1881 66.2231 22.792C66.1438 21.9798 66.1042 18.2853 66.1042 11.7086C66.1042 11.0746 66.4806 10.5794 67.2334 10.2228C67.9861 9.86624 69.0063 9.68795 70.294 9.68795C71.5617 9.68795 72.6809 10.0049 73.6517 10.6388C74.6223 11.2529 75.1077 12.0156 75.1077 12.9269C75.1077 13.3429 74.9194 13.8183 74.5431 14.3532C74.1865 14.888 73.7804 15.3238 73.3248 15.6606C72.9286 15.9378 72.3244 16.3044 71.5122 16.76C70.7 17.2155 70.2146 17.4533 70.0562 17.4731C71.2646 18.2457 72.374 19.1074 73.3842 20.0583C74.3549 21.0092 74.8402 21.7915 74.8402 22.4057C74.8402 22.8415 74.6025 23.1386 74.1271 23.2971C73.9488 23.3566 73.82 23.3863 73.7408 23.3863C73.4437 23.3863 73.1168 23.1684 72.7602 22.7326C72.5026 22.3958 71.8688 21.7817 70.8585 20.8903C69.8284 19.9989 68.9072 19.2758 68.0951 18.7212ZM68.1248 11.976C68.1049 12.6098 68.0951 13.9767 68.0951 16.0766C68.7289 16.0766 69.7095 15.7595 71.0368 15.1257C72.3442 14.472 73.0277 13.8678 73.0871 13.3132C73.0871 12.8178 72.7998 12.4316 72.2254 12.1543C71.6706 11.8572 71.0368 11.7086 70.3237 11.7086C69.5709 11.7086 68.8379 11.7977 68.1248 11.976Z" fill="white"/>
<path d="M89.7845 3.25535L89.7413 25.1418L87.36 29.9044L85.0869 25.0336L85.1734 3.25535C85.1734 1.97811 86.2018 0.949814 87.479 0.949814C88.7454 0.960638 89.7738 1.98893 89.7845 3.25535Z" fill="white" stroke="white" stroke-width="0.874643"/>
<path d="M105.285 20.6583C103.779 17.8057 102.204 15.4483 100.56 13.5863L100.233 20.8069L100.203 21.4606C100.203 21.7974 100.193 22.0054 100.174 22.0846C100.095 22.6194 99.7478 22.8869 99.1337 22.8869C98.896 22.8869 98.6781 22.8077 98.48 22.6491C98.3017 22.4709 98.2026 22.2529 98.1829 21.9954L98.4206 13.6754V12.6949C98.4206 11.9619 98.4701 11.3874 98.5691 10.9714C98.7277 10.4366 99.0842 10.1691 99.6389 10.1691C99.936 10.1691 100.293 10.3672 100.709 10.7634C101.125 11.1398 101.719 11.8232 102.491 12.8137C104.353 15.1117 105.78 17.3006 106.77 19.3806C106.751 16.944 106.681 14.8046 106.562 12.9623L106.414 10.5257V10.288C106.572 9.53523 106.978 9.15886 107.632 9.15886C107.889 9.15886 108.127 9.27771 108.345 9.51543C108.563 9.73334 108.672 10.0107 108.672 10.3474L108.821 21.4011C108.821 22.4312 108.405 22.9463 107.573 22.9463C107.077 22.9463 106.691 22.7779 106.414 22.4411C106.077 22.0251 105.819 21.6488 105.641 21.312C105.463 20.9752 105.344 20.7574 105.285 20.6583ZM112.845 10.8526C113.915 9.80266 115.391 9.27771 117.272 9.27771C118.758 9.27771 119.946 9.85219 120.838 11.0011C121.729 12.1303 122.175 13.6655 122.175 15.6069C122.175 17.5482 121.68 19.2419 120.689 20.688C119.719 22.1143 118.461 22.8274 116.915 22.8274C115.251 22.8274 113.895 22.1143 112.845 20.688C111.795 19.2419 111.27 17.4986 111.27 15.4583C111.27 13.4377 111.795 11.9025 112.845 10.8526ZM114.33 18.9943C115.024 20.1037 115.955 20.6583 117.123 20.6583C117.798 20.6583 118.371 20.3711 118.847 19.7966C119.64 18.8259 120.035 17.5383 120.035 15.9337C120.035 14.3094 119.798 13.1406 119.322 12.4274C118.867 11.6945 118.074 11.328 116.945 11.328C115.797 11.328 114.905 11.6846 114.271 12.3977C113.637 13.0911 113.32 14.0914 113.32 15.3989C113.32 16.7063 113.657 17.9048 114.33 18.9943ZM135.493 9.78286C135.493 10.5951 134.562 11.0011 132.699 11.0011L130.738 10.9417L130.679 17.984L130.709 20.2126C130.729 20.6088 130.738 21.1634 130.738 21.8766C130.738 22.1539 130.61 22.3917 130.352 22.5897C130.114 22.768 129.847 22.8571 129.55 22.8571C129.035 22.8571 128.777 22.5798 128.777 22.0251C128.718 20.064 128.688 18.1722 128.688 16.3497C128.688 14.1706 128.747 12.3977 128.866 11.0309C127.539 11.1299 126.331 11.1794 125.241 11.1794C124.627 11.1794 124.32 10.9219 124.32 10.4069C124.32 10.1691 124.43 9.93143 124.647 9.69371C124.885 9.456 125.143 9.32723 125.419 9.30743L134.69 9.01028C135.225 9.12914 135.493 9.38666 135.493 9.78286ZM142.942 16.2011L139.97 16.1714L140.03 20.064C140.03 20.5989 140.019 20.8762 140 20.896L145.141 20.8069C145.715 20.8663 146.002 21.1139 146.002 21.5497C146.002 22.3817 145.616 22.7977 144.843 22.7977L139.019 22.8571C138.525 22.8571 138.217 22.6689 138.098 22.2926C137.979 21.9162 137.92 21.4111 137.92 20.7771V15.8446C137.663 15.7059 137.534 15.488 137.534 15.1909C137.534 14.9334 137.642 14.6957 137.861 14.4777C137.801 12.9326 137.771 11.5261 137.771 10.2583C137.771 9.52534 138.217 9.14895 139.109 9.12914H139.941L145.141 9.21828H145.17C145.805 9.31734 146.121 9.61448 146.121 10.1097C146.121 10.4861 146.002 10.7535 145.765 10.912C145.249 11.1893 144.011 11.328 142.05 11.328C141.337 11.328 140.605 11.2983 139.851 11.2389C139.851 13.1009 139.862 14.1014 139.881 14.24C140.397 14.2598 141.912 14.2697 144.427 14.2697C145.041 14.3489 145.349 14.6263 145.349 15.1017C145.349 15.3394 145.249 15.5672 145.051 15.7851C144.854 16.0031 144.635 16.1318 144.398 16.1714C144.298 16.1714 144.141 16.1814 143.922 16.2011C143.704 16.2011 143.377 16.2011 142.942 16.2011ZM156.874 9.63428C157.607 9.97105 157.974 10.4267 157.974 11.0011C157.974 11.2587 157.885 11.4766 157.706 11.6549C157.547 11.8134 157.379 11.8926 157.201 11.8926C156.885 11.8926 156.379 11.7341 155.686 11.4171C155.032 11.1002 154.398 10.9417 153.784 10.9417C153.209 10.9417 152.615 11.1002 152.001 11.4171C151.387 11.7143 151.08 12.0906 151.08 12.5463C151.08 13.0019 151.456 13.408 152.209 13.7646C152.903 14.1014 153.794 14.4083 154.883 14.6857C155.953 14.9631 156.637 15.2206 156.934 15.4583C157.231 15.6563 157.479 15.8545 157.677 16.0526C157.855 16.2111 158.014 16.5181 158.152 16.9737C158.311 17.4095 158.39 17.9345 158.39 18.5486C158.39 19.9946 157.914 21.0743 156.963 21.7874C156.032 22.4808 154.913 22.8274 153.606 22.8274C152.318 22.8274 151.209 22.6194 150.278 22.2034C149.346 21.7874 148.881 21.2723 148.881 20.6583C148.881 20.3809 148.981 20.1334 149.178 19.9154C149.376 19.6777 149.605 19.5589 149.862 19.5589C149.921 19.5589 150.01 19.5786 150.129 19.6183C151.971 20.3512 153.141 20.7177 153.635 20.7177C154.467 20.7177 155.111 20.5097 155.567 20.0937C156.042 19.6777 156.28 19.1329 156.28 18.4594C156.28 17.9246 156.112 17.4986 155.775 17.1817C155.438 16.8648 155.022 16.6271 154.527 16.4686C154.051 16.2903 153.398 16.112 152.566 15.9337L151.466 15.6663C150.713 15.4483 150.099 15.1017 149.624 14.6263C149.109 14.1112 148.851 13.3981 148.851 12.4869C148.851 11.5558 149.327 10.7634 150.278 10.1097C151.209 9.43619 152.368 9.09943 153.754 9.09943C155.102 9.09943 156.142 9.27771 156.874 9.63428Z" fill="white"/>
</svg>
