<svg width="34" height="32" viewBox="0 0 34 32" fill="none" xmlns="http://www.w3.org/2000/svg">
<path d="M1.93002 20.0969C1.90069 19.6863 1.61469 17.3176 1.07202 12.9909C1.07202 12.7269 1.16002 12.4996 1.33602 12.3089C1.51202 12.1036 1.73202 12.0009 1.99602 12.0009C2.30402 12.0009 2.50202 12.1989 2.59002 12.5949L2.98602 15.7409C3.20602 17.5743 3.36736 18.8209 3.47002 19.4809C3.80736 18.8503 4.05669 18.3443 4.21802 17.9629L4.79002 16.7529C5.17136 16.0489 5.56002 15.6969 5.95602 15.6969C6.26402 15.6969 6.57202 16.0709 6.88002 16.8189C6.92402 16.8923 6.96802 16.9876 7.01202 17.1049C7.05602 17.2076 7.11469 17.3176 7.18802 17.4349C7.80402 18.7403 8.14869 19.4516 8.22202 19.5689C8.77936 17.0169 9.18266 14.6629 9.43202 12.5069C9.44666 12.3309 9.54938 12.1696 9.74002 12.0229C9.94538 11.8616 10.136 11.7809 10.312 11.7809C10.488 11.7809 10.6347 11.8323 10.752 11.9349C10.8694 12.0229 10.928 12.1476 10.928 12.3089C10.928 13.0716 10.3854 16.1223 9.30002 21.4609C9.21202 21.8423 8.90402 22.0329 8.37602 22.0329C8.14136 22.0329 7.94336 21.9083 7.78202 21.6589C7.57669 21.3216 7.21736 20.6469 6.70402 19.6349C6.36669 18.9309 6.07336 18.3443 5.82402 17.8749C5.16402 19.4443 4.62869 20.5369 4.21802 21.1529C3.82202 21.7689 3.41136 22.0769 2.98602 22.0769C2.72202 22.0769 2.48736 21.8423 2.28202 21.3729C2.09136 20.9329 1.97402 20.5076 1.93002 20.0969Z" fill="white"/>
<path d="M18.4236 8.06904L18.3967 21.6719L16.9166 24.632L15.5039 21.6047L15.5577 8.06904C15.5577 7.2752 16.1968 6.63609 16.9907 6.63609C17.7778 6.64282 18.4169 7.28193 18.4236 8.06904Z" fill="white" stroke="white" stroke-width="0.874643"/>
<path d="M29.3742 20.4489C28.2596 18.3369 27.0936 16.5916 25.8762 15.2129L25.6342 20.5589L25.6122 21.0429C25.6122 21.2923 25.6048 21.4463 25.5902 21.5049C25.5316 21.9009 25.2749 22.0989 24.8202 22.0989C24.6442 22.0989 24.4828 22.0403 24.3362 21.9229C24.2042 21.7909 24.1308 21.6296 24.1162 21.4389L24.2922 15.2789V14.5529C24.2922 14.0103 24.3288 13.5849 24.4022 13.2769C24.5196 12.8809 24.7836 12.6829 25.1942 12.6829C25.4142 12.6829 25.6782 12.8296 25.9862 13.1229C26.2942 13.4016 26.7342 13.9076 27.3062 14.6409C28.6848 16.3423 29.7408 17.9629 30.4742 19.5029C30.4596 17.6989 30.4082 16.1149 30.3202 14.7509L30.2102 12.9469V12.7709C30.3276 12.2136 30.6282 11.9349 31.1122 11.9349C31.3029 11.9349 31.4788 12.0229 31.6402 12.1989C31.8016 12.3603 31.8822 12.5656 31.8822 12.8149L31.9922 20.9989C31.9922 21.7616 31.6842 22.1429 31.0682 22.1429C30.7016 22.1429 30.4156 22.0183 30.2102 21.7689C29.9608 21.4609 29.7702 21.1823 29.6382 20.9329C29.5062 20.6836 29.4182 20.5223 29.3742 20.4489Z" fill="white"/>
</svg>
