<svg width="470" height="380" viewBox="0 0 470 380" fill="none" xmlns="http://www.w3.org/2000/svg">
<path fill-rule="evenodd" clip-rule="evenodd" d="M462.641 95.2978C462.277 95.0328 461.413 94.9392 461.011 94.8593C459.339 94.5301 457.617 94.3867 455.913 94.3867C450.66 94.3949 445.32 94.9105 440.154 95.8032C436.873 96.3693 432.907 98.2768 429.644 97.2408C423.959 95.4364 418.213 95.5252 412.819 98.1013C407.888 100.457 404.144 104.931 401.96 109.765C401.63 110.495 400.292 113.181 399.914 114.991C399.752 115.362 399.597 115.734 399.457 116.112C399.059 117.186 398.702 118.279 398.371 119.375C398.229 119.842 397.873 120.873 398.296 121.072C397.62 122.32 397.02 123.605 396.522 124.932C395.071 128.792 393.483 133.027 392.973 137.118C392.785 138.632 392.777 140.156 392.953 141.674C393.04 142.424 393.004 143.932 393.512 144.503C394.592 145.713 395.146 144.019 395.024 143.212C394.095 137.061 395.89 131.285 398.016 125.503C399.391 121.764 401.65 118.343 404.181 115.246C406.229 112.738 408.426 110.764 411.234 109.102C414.668 107.068 418.339 105.425 421.976 103.777C424.368 102.692 426.763 101.636 429.222 100.702C429.769 100.494 430.629 99.9603 431.235 99.9582C432.517 99.9541 434.334 100.9 435.572 101.252C439.646 102.41 443.771 103.893 447.98 104.484C450.681 104.864 453.21 104.436 455.735 103.537C455.993 103.445 456.426 103.209 456.956 102.872C458.831 102.151 460.605 101.243 462.149 99.933C463.038 99.179 463.846 98.2037 464.582 97.3111C464.802 97.0448 464.9 96.7388 464.903 96.4479C465.07 96.3611 465.18 96.2587 465.206 96.1399C465.389 95.2616 463.714 95.2459 462.641 95.2978Z" fill="#E4A400"/>
<path fill-rule="evenodd" clip-rule="evenodd" d="M35.8297 168.515C34.7989 169.35 33.7879 170.202 32.8016 171.089C32.0499 171.765 30.7196 172.574 30.4497 173.599C30.1692 174.664 31.0548 175.66 31.7544 176.303C35.454 179.707 39.6199 182.008 44.7462 182.391C52.6396 182.981 59.5092 180.965 66.358 176.999C71.1687 174.212 74.3554 170.091 75.0513 164.527C80.7806 166.907 86.3214 170.19 91.0303 174.218C93.3537 176.205 95.3548 178.407 97.2056 180.848C98.3912 182.412 99.5379 184 100.602 185.65C101.064 186.367 101.535 187.638 102.298 188.051C103.195 188.536 104.279 187.776 104.235 186.779C104.197 185.949 103.302 184.987 102.882 184.309C102.187 183.183 101.481 182.063 100.737 180.969C99.5338 179.195 98.2901 177.447 96.9338 175.788C93.8851 172.059 90.0066 168.979 85.9861 166.353C78.2728 161.314 69.8076 158.14 60.4225 157.87C54.6517 157.705 49.797 159.677 44.862 162.621C41.7895 164.454 38.6178 166.257 35.8297 168.515Z" fill="#F9E080"/>
<path fill-rule="evenodd" clip-rule="evenodd" d="M110.688 144.143C104.674 137.95 98.639 131.834 91.9202 126.38C87.9604 123.167 83.7876 120.245 79.7008 117.198C80.172 117.611 80.6344 118.036 81.0858 118.472C79.8101 117.606 78.1403 117.116 76.788 116.314C75.2794 115.42 73.837 114.397 72.4226 113.367C69.6614 111.355 66.9419 109.304 64.1036 107.398C60.9415 105.273 57.6644 103.31 54.4485 101.265C51.7191 99.5307 48.9563 97.6314 46.0364 96.2129C44.445 95.4398 42.8498 94.524 41.2519 93.7174C40.7171 93.4477 35.2906 90.0213 35.3042 90.0104C35.6042 89.785 38.335 91.0676 38.7572 91.2404C39.9909 91.7444 41.1706 92.3468 42.3566 92.9477C41.7056 91.6638 41.1903 90.3143 40.9098 88.8944C40.8232 88.456 40.1289 85.2652 40.4842 84.9975C40.6616 84.8636 42.3929 90.5731 42.4815 91.1215C42.5536 91.5675 42.543 92.2095 42.6889 92.6315C42.9245 93.3138 42.9127 93.1076 43.4318 93.4921C44.3831 94.1962 45.646 94.636 46.6757 95.224C47.2309 95.5341 48.95 96.7634 49.9855 97.1137C53.1185 98.6354 56.2941 100.977 59.271 102.92C58.4898 101.452 57.8952 99.9166 57.4617 98.3075C57.3585 97.9258 56.2459 94.4994 56.5158 94.2959C56.8195 94.0664 58.9396 99.3006 59.0652 99.7957C59.2985 100.716 59.3469 101.74 59.6391 102.636C59.9594 103.619 60.9599 103.967 61.8614 104.54C65.1785 106.648 68.3823 108.887 71.532 111.23C74.9693 105.117 71.0061 97.7352 67.6665 92.6063C65.2584 88.9095 62.0178 85.7406 58.5953 82.9739C54.0282 79.2812 48.8027 76.3315 43.5837 73.6332C37.5024 70.4896 30.9297 68.5411 24.0965 67.6417C20.5226 67.1704 16.8663 67.1841 13.2563 67.335C11.4929 67.4081 9.80017 67.6417 8.11021 68.2174C7.34851 68.4769 6.61236 68.804 5.89499 69.1701C5.34992 69.4481 4.03142 69.7417 3.71801 70.1563C1.1383 73.5144 -0.181437 76.8601 0.0201016 81.0794C0.210645 85.0733 1.47206 89.0693 3.18394 92.6322C5.0904 96.5988 7.54233 100.199 10.7491 103.221C13.1957 105.527 15.931 107.534 18.6483 109.514C28.3128 116.557 40.5658 122.683 53.083 121.109C57.1349 120.6 60.9886 119.183 64.5898 117.257C65.4387 116.804 66.2822 116.345 67.0833 115.81C67.6235 115.448 69.0673 113.821 69.6102 113.761C70.3553 113.681 71.9589 115.195 72.6575 115.656C77.9668 119.161 83.1367 122.856 88.1981 126.699C93.5838 130.789 98.7046 135.157 103.675 139.73C105.789 141.675 107.89 143.625 109.942 145.635C110.42 146.103 111.588 147.826 112.455 147.903C113.003 147.953 113.372 147.485 113.295 146.978C113.159 146.096 111.304 144.778 110.688 144.143Z" fill="#F3D27D"/>
<path fill-rule="evenodd" clip-rule="evenodd" d="M456.328 120.107C453.999 119.598 451.426 119.637 449.054 119.679C436.327 119.852 423.831 125.877 415.698 135.504C408.774 143.699 406.87 153.889 405.502 164.189C405.367 165.212 405.309 166.228 405.233 167.253C405.216 167.473 405.192 167.669 405.165 167.854C404.628 168.335 404.345 168.895 404.664 169.511C403.479 172.105 402.476 174.763 401.616 177.506C399.084 185.579 396.509 193.805 398.095 202.293C398.466 197.622 399.246 192.845 400.178 188.25C400.231 187.987 400.289 187.725 400.35 187.464C400.356 187.437 400.362 187.409 400.368 187.382C400.698 185.975 401.127 184.61 401.649 183.267C401.654 183.252 401.659 183.237 401.665 183.223C401.734 183.046 401.807 182.87 401.879 182.695C402.029 182.33 402.183 181.967 402.345 181.606C402.4 181.482 402.453 181.358 402.504 181.233C403.264 179.371 403.584 177.273 404.265 175.347C404.427 174.91 404.597 174.473 404.776 174.039C404.787 174.013 404.797 173.988 404.808 173.963C405.29 172.794 405.822 171.641 406.385 170.499C406.691 170.269 406.855 169.699 407.119 169.18C407.173 169.078 407.6 168.397 407.727 168.004C408.059 167.363 408.389 166.722 408.723 166.081C408.713 166.085 408.703 166.089 408.692 166.093C409.026 165.477 409.362 164.865 409.694 164.255C409.767 164.122 409.841 163.988 409.915 163.853C410.034 163.639 410.154 163.426 410.273 163.213C411.387 161.218 412.57 159.263 413.797 157.332C414.235 156.643 415.282 155.655 415.482 154.882C415.49 154.853 415.491 154.826 415.496 154.799C418.16 151.057 421.225 147.607 424.903 144.873C424.458 145.354 423.513 146.984 423.264 147.307C422.499 148.296 421.669 149.216 420.837 150.147C419.344 151.816 417.888 153.537 416.594 155.357C414.227 158.685 412.186 162.188 410.255 165.762C410.237 165.783 410.217 165.802 410.2 165.824C409.229 167.02 408.619 168.827 407.921 170.195C410.684 168.915 413.74 168.081 416.576 166.945C419.405 165.812 422.155 164.55 424.812 163.069C428.342 161.099 432.005 158.876 435.341 156.36C439.163 153.989 442.376 150.725 445.211 147.3C448.566 143.247 451.641 139.16 453.542 134.239C454.476 131.821 455.211 129.3 455.647 126.749C455.666 126.639 455.69 126.518 455.716 126.393C456.162 125.512 456.561 124.611 456.895 123.69C457.426 122.228 458.68 120.62 456.328 120.107Z" fill="#D98E00"/>
<path fill-rule="evenodd" clip-rule="evenodd" d="M61.601 137.228C60.8716 136.437 60.052 135.724 59.0896 135.216C58.8462 135.087 57.0339 134.227 56.9159 134.415C56.641 134.855 61.3818 136.975 61.601 137.228ZM70.1939 131.949C70.1877 131.983 70.816 133.049 70.9875 133.376C71.3515 134.074 71.6875 134.784 72.0037 135.496C71.5359 134.239 71.0544 133.073 70.1939 131.949ZM26.2494 140.629C25.6442 140.823 24.9166 140.055 25.7016 139.866C26.3368 139.714 26.3056 139.679 26.5908 139.167C26.8224 138.751 26.9651 138.245 27.1683 137.809C27.5994 136.884 28.0884 136.002 28.6887 135.175C29.9751 133.404 31.5424 131.877 33.3003 130.591C36.3681 128.347 39.8079 126.294 43.4569 125.264C49.2586 123.625 55.8619 123.524 61.6727 124.66C65.2718 125.363 68.5603 126.587 70.9499 129.485C72.1444 130.933 73.0821 132.629 73.4919 134.497C73.5991 134.986 73.5786 135.528 73.7124 136.007C73.9187 136.742 73.8279 136.546 74.6877 136.689C75.6261 136.845 76.5638 137.004 77.5015 137.167C79.9567 137.592 82.4262 138.042 84.8186 138.732C85.606 138.958 86.3757 139.236 87.1283 139.557C87.6972 139.8 89.9626 140.565 90.2378 141.304C90.6961 142.534 89.1608 141.976 88.6834 141.708C88.2655 141.474 87.8366 141.254 87.4015 141.053C86.3054 140.546 85.1635 140.153 83.9956 139.841C82.7336 139.504 81.4462 139.252 80.1629 138.999C78.9671 138.764 77.7664 138.551 76.5638 138.346C75.8958 138.232 75.2279 138.122 74.5593 138.012C74.3305 137.973 73.9283 137.776 73.9583 138.073C72.5528 137.802 71.0332 137.841 69.6018 137.767C67.8486 137.675 66.0887 137.6 64.3294 137.655C63.0604 137.694 61.7908 137.777 60.5281 137.948C59.7905 138.048 59.0646 138.193 58.3409 138.378C57.9434 138.48 56.3757 138.695 56.1592 139.041C56.2522 138.892 57.9823 139.037 58.2025 139.028C59.0833 138.995 59.9571 138.908 60.8347 138.81C62.4636 138.628 64.0924 138.533 65.726 138.546C65.7199 138.833 64.6039 139.344 64.3314 139.534C63.7209 139.961 63.1356 140.425 62.5899 140.935C61.629 141.833 60.4775 142.946 59.813 144.011C60.009 143.697 60.9754 143.289 61.3182 143.049C61.868 142.665 62.4069 142.256 62.9163 141.818C63.3862 141.413 63.8254 140.976 64.257 140.53C64.6886 140.084 65.2739 139.156 65.8414 138.859C65.8756 138.841 66.1228 139.036 66.2628 138.97C66.4049 138.903 66.5811 138.568 66.6166 138.555C67.1445 138.351 68.1471 138.604 68.7023 138.63C70.1413 138.697 71.5796 138.783 73.0172 138.863C73.4632 138.887 73.8415 138.785 74.0102 139.114C74.1891 139.465 73.8606 140.386 73.7671 140.768C73.4201 142.186 72.8048 143.457 71.835 144.556C70.0197 146.613 67.7803 147.985 65.2514 148.903C55.5642 152.417 45.2582 153.825 35.5738 150.169C31.5645 148.655 25.5265 145.95 26.2494 140.629Z" fill="#E4A400"/>
<g opacity="0.6">
<path fill-rule="evenodd" clip-rule="evenodd" d="M469.803 306.206C476.393 350.819 316.566 379.919 179 359.61C41.433 339.303 -21.676 259.998 43.9685 217.741C109.613 175.484 463.212 261.592 469.803 306.206Z" fill="#F9E080"/>
</g>
<path d="M188.624 13.7985H90.9622C87.9447 13.7985 85.4986 16.2446 85.4986 19.2621V214.586C85.4986 217.604 87.9447 220.05 90.9622 220.05H188.624C191.642 220.05 194.088 217.604 194.088 214.586V19.2621C194.088 16.2446 191.642 13.7985 188.624 13.7985Z" fill="#F8E799"/>
<path fill-rule="evenodd" clip-rule="evenodd" d="M139.451 207.074C145.109 207.074 149.696 202.487 149.696 196.829C149.696 191.172 145.109 186.585 139.451 186.585C133.794 186.585 129.207 191.172 129.207 196.829C129.207 202.487 133.794 207.074 139.451 207.074Z" fill="#FFF7A6"/>
<path fill-rule="evenodd" clip-rule="evenodd" d="M130.573 27.4575C131.328 27.4575 131.939 26.846 131.939 26.0916C131.939 25.3372 131.328 24.7257 130.573 24.7257C129.818 24.7257 129.207 25.3372 129.207 26.0916C129.207 26.846 129.818 27.4575 130.573 27.4575Z" fill="#FFF7A6"/>
<path d="M148.33 24.7257H136.72C135.966 24.7257 135.354 25.3372 135.354 26.0916C135.354 26.846 135.966 27.4575 136.72 27.4575H148.33C149.085 27.4575 149.696 26.846 149.696 26.0916C149.696 25.3372 149.085 24.7257 148.33 24.7257Z" fill="#FFF7A6"/>
<path d="M181.795 32.9211H97.7916C96.2829 32.9211 95.0598 34.1442 95.0598 35.6529V67.0687C95.0598 68.5775 96.2829 69.8005 97.7916 69.8005H181.795C183.303 69.8005 184.526 68.5775 184.526 67.0687V35.6529C184.526 34.1442 183.303 32.9211 181.795 32.9211Z" fill="#FFF7A6"/>
<mask id="mask0_55_2402" style="mask-type:luminance" maskUnits="userSpaceOnUse" x="121" y="43" width="51" height="16">
<path d="M171.551 43.985H121.695V58.7367H171.551V43.985Z" fill="white"/>
</mask>
<g mask="url(#mask0_55_2402)">
<path d="M169.502 43.985H123.744C122.613 43.985 121.695 44.9023 121.695 46.0338V47.468C121.695 48.5996 122.613 49.5169 123.744 49.5169H169.502C170.634 49.5169 171.551 48.5996 171.551 47.468V46.0338C171.551 44.9023 170.634 43.985 169.502 43.985Z" fill="#F9E080"/>
<path d="M153.111 53.2048H123.744C122.612 53.2048 121.695 54.1221 121.695 55.2537V56.6879C121.695 57.8194 122.612 58.7367 123.744 58.7367H153.111C154.243 58.7367 155.16 57.8194 155.16 56.6879V55.2537C155.16 54.1221 154.243 53.2048 153.111 53.2048Z" fill="#F9E080"/>
</g>
<path fill-rule="evenodd" clip-rule="evenodd" d="M109.402 59.5562C113.928 59.5562 117.597 55.8867 117.597 51.3608C117.597 46.8349 113.928 43.1654 109.402 43.1654C104.876 43.1654 101.206 46.8349 101.206 51.3608C101.206 55.8867 104.876 59.5562 109.402 59.5562Z" fill="#595959"/>
<path d="M181.795 75.2642H97.7918C96.2831 75.2642 95.06 76.4872 95.06 77.996V101.216C95.06 102.725 96.2831 103.948 97.7918 103.948H181.795C183.304 103.948 184.527 102.725 184.527 101.216V77.996C184.527 76.4872 183.304 75.2642 181.795 75.2642Z" fill="#FFF7A6"/>
<mask id="mask1_55_2402" style="mask-type:luminance" maskUnits="userSpaceOnUse" x="121" y="83" width="51" height="13">
<path d="M171.551 83.8694H121.696V95.343H171.551V83.8694Z" fill="white"/>
</mask>
<g mask="url(#mask1_55_2402)">
<path d="M169.502 83.8694H123.744C122.613 83.8694 121.696 84.7867 121.696 85.9182V86.1231C121.696 87.2547 122.613 88.172 123.744 88.172H169.502C170.634 88.172 171.551 87.2547 171.551 86.1231V85.9182C171.551 84.7867 170.634 83.8694 169.502 83.8694Z" fill="#F9E080"/>
<path d="M153.111 91.0404H123.744C122.613 91.0404 121.695 91.9577 121.695 93.0893V93.2941C121.695 94.4257 122.613 95.343 123.744 95.343H153.111C154.243 95.343 155.16 94.4257 155.16 93.2941V93.0893C155.16 91.9577 154.243 91.0404 153.111 91.0404Z" fill="#F9E080"/>
</g>
<path fill-rule="evenodd" clip-rule="evenodd" d="M109.402 97.8015C113.928 97.8015 117.597 94.132 117.597 89.6061C117.597 85.0801 113.928 81.4106 109.402 81.4106C104.876 81.4106 101.206 85.0801 101.206 89.6061C101.206 94.132 104.876 97.8015 109.402 97.8015Z" fill="#595959"/>
<path d="M181.795 109.412H97.7918C96.2831 109.412 95.06 110.635 95.06 112.144V135.364C95.06 136.873 96.2831 138.096 97.7918 138.096H181.795C183.304 138.096 184.527 136.873 184.527 135.364V112.144C184.527 110.635 183.304 109.412 181.795 109.412Z" fill="#FFF7A6"/>
<mask id="mask2_55_2402" style="mask-type:luminance" maskUnits="userSpaceOnUse" x="121" y="118" width="51" height="12">
<path d="M171.551 118.017H121.696V129.491H171.551V118.017Z" fill="white"/>
</mask>
<g mask="url(#mask2_55_2402)">
<path d="M169.502 118.017H123.744C122.613 118.017 121.696 118.934 121.696 120.066V120.271C121.696 121.402 122.613 122.32 123.744 122.32H169.502C170.634 122.32 171.551 121.402 171.551 120.271V120.066C171.551 118.934 170.634 118.017 169.502 118.017Z" fill="#F9E080"/>
<path d="M153.111 125.188H123.744C122.613 125.188 121.695 126.105 121.695 127.237V127.442C121.695 128.573 122.613 129.491 123.744 129.491H153.111C154.243 129.491 155.16 128.573 155.16 127.442V127.237C155.16 126.105 154.243 125.188 153.111 125.188Z" fill="#F9E080"/>
</g>
<path fill-rule="evenodd" clip-rule="evenodd" d="M109.402 131.949C113.928 131.949 117.597 128.28 117.597 123.754C117.597 119.228 113.928 115.558 109.402 115.558C104.876 115.558 101.206 119.228 101.206 123.754C101.206 128.28 104.876 131.949 109.402 131.949Z" fill="#595959"/>
<path d="M181.795 143.559H97.7918C96.2831 143.559 95.06 144.782 95.06 146.291V169.511C95.06 171.02 96.2831 172.243 97.7918 172.243H181.795C183.304 172.243 184.527 171.02 184.527 169.511V146.291C184.527 144.782 183.304 143.559 181.795 143.559Z" fill="#FFF7A6"/>
<mask id="mask3_55_2402" style="mask-type:luminance" maskUnits="userSpaceOnUse" x="121" y="152" width="51" height="12">
<path d="M171.551 152.165H121.696V163.638H171.551V152.165Z" fill="white"/>
</mask>
<g mask="url(#mask3_55_2402)">
<path d="M169.502 152.165H123.744C122.613 152.165 121.696 153.082 121.696 154.213V154.418C121.696 155.55 122.613 156.467 123.744 156.467H169.502C170.634 156.467 171.551 155.55 171.551 154.418V154.213C171.551 153.082 170.634 152.165 169.502 152.165Z" fill="#F9E080"/>
<path d="M153.111 159.336H123.744C122.613 159.336 121.695 160.253 121.695 161.384V161.589C121.695 162.721 122.613 163.638 123.744 163.638H153.111C154.243 163.638 155.16 162.721 155.16 161.589V161.384C155.16 160.253 154.243 159.336 153.111 159.336Z" fill="#F9E080"/>
</g>
<path fill-rule="evenodd" clip-rule="evenodd" d="M109.402 166.097C113.928 166.097 117.597 162.427 117.597 157.901C117.597 153.375 113.928 149.706 109.402 149.706C104.876 149.706 101.206 153.375 101.206 157.901C101.206 162.427 104.876 166.097 109.402 166.097Z" fill="#595959"/>
<path fill-rule="evenodd" clip-rule="evenodd" d="M106.083 180.439C105.178 180.439 104.276 180.457 103.372 180.503C102.683 180.54 101.631 180.397 101.048 180.827C100.442 181.272 100.484 182.185 100.579 182.83C101.079 186.239 102.299 189.262 104.853 191.677C108.785 195.396 113.291 197.286 118.625 198.127C122.371 198.718 125.83 197.898 128.588 195.233C130.603 198.973 132.131 203.112 132.898 207.289C133.277 209.35 133.392 211.387 133.326 213.485C133.283 214.829 133.209 216.171 133.065 217.509C133.002 218.09 132.706 218.969 132.933 219.519C133.2 220.164 134.101 220.227 134.505 219.676C134.842 219.219 134.781 218.319 134.849 217.778C134.964 216.877 135.07 215.977 135.146 215.072C135.27 213.609 135.36 212.141 135.354 210.672C135.338 207.371 134.604 204.057 133.6 200.924C131.674 194.912 128.55 189.569 123.69 185.377C120.701 182.8 117.281 181.756 113.401 181.195C110.985 180.846 108.53 180.439 106.083 180.439Z" fill="#E4A400"/>
<path fill-rule="evenodd" clip-rule="evenodd" d="M120.037 204.342C110.271 204.342 103.694 212.212 100.585 220.393C99.4123 223.476 99.1377 226.862 98.6856 230.099C98.5408 231.138 98.5948 232.721 98.1727 233.647C98.0198 233.983 97.6687 234.103 97.8367 234.56C97.9385 234.837 98.1372 235.007 98.437 235.062C99.051 235.175 99.9197 234.506 100.446 234.242C104.814 232.051 107.684 228.664 110.025 224.52C111.477 221.951 112.95 219.284 113.812 216.464C114.338 214.741 114.645 212.927 114.825 211.14C114.896 210.436 114.964 209.715 114.96 209.008C114.956 208.305 114.629 207.934 114.394 207.322C117.653 206.089 121.331 205.753 124.632 207.031C127.684 208.213 130.22 210.497 131.64 213.368C132.009 214.114 132.294 214.9 132.501 215.703C132.637 216.229 132.643 216.911 132.895 217.386C133.504 218.539 134.786 217.769 134.664 216.696C134.32 213.704 132.609 210.7 130.42 208.619C127.661 205.995 123.921 204.342 120.037 204.342Z" fill="#E4A400"/>
<path d="M233.699 31.5552H136.037C133.02 31.5552 130.574 34.0013 130.574 37.0188V232.343C130.574 235.36 133.02 237.807 136.037 237.807H233.699C236.717 237.807 239.163 235.36 239.163 232.343V37.0188C239.163 34.0013 236.717 31.5552 233.699 31.5552Z" fill="#F9E080"/>
<path fill-rule="evenodd" clip-rule="evenodd" d="M184.526 224.83C190.184 224.83 194.771 220.244 194.771 214.586C194.771 208.929 190.184 204.342 184.526 204.342C178.869 204.342 174.282 208.929 174.282 214.586C174.282 220.244 178.869 224.83 184.526 224.83Z" fill="#FFF7A6"/>
<path fill-rule="evenodd" clip-rule="evenodd" d="M175.648 45.2142C176.403 45.2142 177.014 44.603 177.014 43.8483C177.014 43.0937 176.403 42.4824 175.648 42.4824C174.893 42.4824 174.282 43.0937 174.282 43.8483C174.282 44.603 174.893 45.2142 175.648 45.2142Z" fill="#FFF7A6"/>
<path d="M193.405 42.4824H181.795C181.041 42.4824 180.429 43.094 180.429 43.8483C180.429 44.6027 181.041 45.2142 181.795 45.2142H193.405C194.16 45.2142 194.771 44.6027 194.771 43.8483C194.771 43.094 194.16 42.4824 193.405 42.4824Z" fill="#FFF7A6"/>
<path d="M226.87 50.6779H142.867C141.358 50.6779 140.135 51.9009 140.135 53.4097V84.8254C140.135 86.3342 141.358 87.5572 142.867 87.5572H226.87C228.378 87.5572 229.601 86.3342 229.601 84.8254V53.4097C229.601 51.9009 228.378 50.6779 226.87 50.6779Z" fill="#FFF7A6"/>
<mask id="mask4_55_2402" style="mask-type:luminance" maskUnits="userSpaceOnUse" x="146" y="61" width="51" height="16">
<path d="M196.137 61.7417H146.281V76.4935H196.137V61.7417Z" fill="white"/>
</mask>
<g mask="url(#mask4_55_2402)">
<path d="M194.088 61.7417H148.33C147.199 61.7417 146.281 62.659 146.281 63.7906V65.2248C146.281 66.3563 147.199 67.2736 148.33 67.2736H194.088C195.22 67.2736 196.137 66.3563 196.137 65.2248V63.7906C196.137 62.659 195.22 61.7417 194.088 61.7417Z" fill="#F9E080"/>
<path d="M177.697 70.9615H148.33C147.199 70.9615 146.282 71.8789 146.282 73.0104V74.4446C146.282 75.5762 147.199 76.4935 148.33 76.4935H177.697C178.829 76.4935 179.746 75.5762 179.746 74.4446V73.0104C179.746 71.8789 178.829 70.9615 177.697 70.9615Z" fill="#F9E080"/>
</g>
<path fill-rule="evenodd" clip-rule="evenodd" d="M220.04 73.8982C222.68 73.8982 224.82 71.7579 224.82 69.1176C224.82 66.4773 222.68 64.3369 220.04 64.3369C217.4 64.3369 215.259 66.4773 215.259 69.1176C215.259 71.7579 217.4 73.8982 220.04 73.8982Z" fill="#F9E080"/>
<path fill-rule="evenodd" clip-rule="evenodd" d="M220.039 71.1664C221.171 71.1664 222.088 70.2492 222.088 69.1176C222.088 67.9859 221.171 67.0687 220.039 67.0687C218.908 67.0687 217.99 67.9859 217.99 69.1176C217.99 70.2492 218.908 71.1664 220.039 71.1664Z" fill="#F8E799"/>
<path d="M226.869 93.0209H142.866C141.358 93.0209 140.135 94.2439 140.135 95.7527V118.973C140.135 120.482 141.358 121.705 142.866 121.705H226.869C228.378 121.705 229.601 120.482 229.601 118.973V95.7527C229.601 94.2439 228.378 93.0209 226.869 93.0209Z" fill="#FFF7A6"/>
<mask id="mask5_55_2402" style="mask-type:luminance" maskUnits="userSpaceOnUse" x="166" y="101" width="51" height="13">
<path d="M216.625 101.626H166.769V113.1H216.625V101.626Z" fill="white"/>
</mask>
<g mask="url(#mask5_55_2402)">
<path d="M214.576 101.626H168.818C167.687 101.626 166.769 102.543 166.769 103.675V103.88C166.769 105.011 167.687 105.929 168.818 105.929H214.576C215.707 105.929 216.625 105.011 216.625 103.88V103.675C216.625 102.543 215.707 101.626 214.576 101.626Z" fill="#F9E080"/>
<path d="M198.185 108.797H168.818C167.686 108.797 166.769 109.714 166.769 110.846V111.051C166.769 112.182 167.686 113.1 168.818 113.1H198.185C199.316 113.1 200.234 112.182 200.234 111.051V110.846C200.234 109.714 199.316 108.797 198.185 108.797Z" fill="#F9E080"/>
</g>
<path fill-rule="evenodd" clip-rule="evenodd" d="M154.477 115.558C159.003 115.558 162.672 111.889 162.672 107.363C162.672 102.837 159.003 99.1675 154.477 99.1675C149.951 99.1675 146.281 102.837 146.281 107.363C146.281 111.889 149.951 115.558 154.477 115.558Z" fill="#595959"/>
<path d="M226.869 127.168H142.866C141.358 127.168 140.135 128.392 140.135 129.9V153.121C140.135 154.629 141.358 155.852 142.866 155.852H226.869C228.378 155.852 229.601 154.629 229.601 153.121V129.9C229.601 128.392 228.378 127.168 226.869 127.168Z" fill="#FFF7A6"/>
<mask id="mask6_55_2402" style="mask-type:luminance" maskUnits="userSpaceOnUse" x="146" y="135" width="51" height="13">
<path d="M196.137 135.774H146.281V147.247H196.137V135.774Z" fill="white"/>
</mask>
<g mask="url(#mask6_55_2402)">
<path d="M194.088 135.774H148.33C147.199 135.774 146.281 136.691 146.281 137.823V138.027C146.281 139.159 147.199 140.076 148.33 140.076H194.088C195.219 140.076 196.137 139.159 196.137 138.027V137.823C196.137 136.691 195.219 135.774 194.088 135.774Z" fill="#F9E080"/>
<path d="M177.697 142.945H148.33C147.199 142.945 146.281 143.862 146.281 144.994V145.198C146.281 146.33 147.199 147.247 148.33 147.247H177.697C178.829 147.247 179.746 146.33 179.746 145.198V144.994C179.746 143.862 178.829 142.945 177.697 142.945Z" fill="#595959"/>
</g>
<path fill-rule="evenodd" clip-rule="evenodd" d="M220.04 146.291C222.68 146.291 224.82 144.151 224.82 141.51C224.82 138.87 222.68 136.73 220.04 136.73C217.399 136.73 215.259 138.87 215.259 141.51C215.259 144.151 217.399 146.291 220.04 146.291Z" fill="#F9E080"/>
<path fill-rule="evenodd" clip-rule="evenodd" d="M220.039 143.559C221.171 143.559 222.088 142.642 222.088 141.51C222.088 140.379 221.171 139.462 220.039 139.462C218.907 139.462 217.99 140.379 217.99 141.51C217.99 142.642 218.907 143.559 220.039 143.559Z" fill="#F8E799"/>
<path d="M226.869 161.316H142.866C141.358 161.316 140.135 162.539 140.135 164.048V187.268C140.135 188.777 141.358 190 142.866 190H226.869C228.378 190 229.601 188.777 229.601 187.268V164.048C229.601 162.539 228.378 161.316 226.869 161.316Z" fill="#FFF7A6"/>
<mask id="mask7_55_2402" style="mask-type:luminance" maskUnits="userSpaceOnUse" x="166" y="169" width="51" height="13">
<path d="M216.625 169.921H166.769V181.395H216.625V169.921Z" fill="white"/>
</mask>
<g mask="url(#mask7_55_2402)">
<path d="M214.576 169.921H168.818C167.687 169.921 166.769 170.839 166.769 171.97V172.175C166.769 173.307 167.687 174.224 168.818 174.224H214.576C215.707 174.224 216.625 173.307 216.625 172.175V171.97C216.625 170.839 215.707 169.921 214.576 169.921Z" fill="#F9E080"/>
<path d="M198.185 177.092H168.818C167.686 177.092 166.769 178.01 166.769 179.141V179.346C166.769 180.478 167.686 181.395 168.818 181.395H198.185C199.316 181.395 200.234 180.478 200.234 179.346V179.141C200.234 178.01 199.316 177.092 198.185 177.092Z" fill="#F9E080"/>
</g>
<path fill-rule="evenodd" clip-rule="evenodd" d="M154.477 183.853C159.003 183.853 162.672 180.184 162.672 175.658C162.672 171.132 159.003 167.463 154.477 167.463C149.951 167.463 146.281 171.132 146.281 175.658C146.281 180.184 149.951 183.853 154.477 183.853Z" fill="#595959"/>
<path d="M398.973 48.629H181.112C178.094 48.629 175.648 51.0752 175.648 54.0926V279.467C175.648 282.484 178.094 284.93 181.112 284.93H398.973C401.991 284.93 404.437 282.484 404.437 279.467V54.0926C404.437 51.0752 401.991 48.629 398.973 48.629Z" fill="#F8E799"/>
<path d="M388.047 77.996H351.167C348.15 77.996 345.704 80.4421 345.704 83.4596V127.851C345.704 130.869 348.15 133.315 351.167 133.315H388.047C391.064 133.315 393.51 130.869 393.51 127.851V83.4596C393.51 80.4421 391.064 77.996 388.047 77.996Z" fill="#FFF7A6"/>
<path fill-rule="evenodd" clip-rule="evenodd" d="M369.607 110.095C375.643 110.095 380.535 105.203 380.535 99.1675C380.535 93.1322 375.643 88.2402 369.607 88.2402C363.572 88.2402 358.68 93.1322 358.68 99.1675C358.68 105.203 363.572 110.095 369.607 110.095Z" fill="#F9E080"/>
<path d="M384.632 112.827H354.582C353.45 112.827 352.533 113.744 352.533 114.875C352.533 116.007 353.45 116.924 354.582 116.924H384.632C385.763 116.924 386.68 116.007 386.68 114.875C386.68 113.744 385.763 112.827 384.632 112.827Z" fill="#F9E080"/>
<path d="M379.167 119.656H360.045C358.913 119.656 357.996 120.573 357.996 121.705C357.996 122.836 358.913 123.754 360.045 123.754H379.167C380.299 123.754 381.216 122.836 381.216 121.705C381.216 120.573 380.299 119.656 379.167 119.656Z" fill="#F9E080"/>
<path d="M175.648 54.0926C175.648 51.0754 178.095 48.629 181.112 48.629H398.973C401.991 48.629 404.437 51.0754 404.437 54.0926V67.0687H175.648V54.0926Z" fill="#595959"/>
<path fill-rule="evenodd" clip-rule="evenodd" d="M184.527 60.9221C186.035 60.9221 187.258 59.6989 187.258 58.1903C187.258 56.6817 186.035 55.4585 184.527 55.4585C183.018 55.4585 181.795 56.6817 181.795 58.1903C181.795 59.6989 183.018 60.9221 184.527 60.9221Z" fill="#F8E799"/>
<path fill-rule="evenodd" clip-rule="evenodd" d="M192.722 60.9221C194.231 60.9221 195.454 59.6989 195.454 58.1903C195.454 56.6817 194.231 55.4585 192.722 55.4585C191.214 55.4585 189.99 56.6817 189.99 58.1903C189.99 59.6989 191.214 60.9221 192.722 60.9221Z" fill="#F8E799"/>
<path fill-rule="evenodd" clip-rule="evenodd" d="M200.917 60.9221C202.426 60.9221 203.649 59.6989 203.649 58.1903C203.649 56.6817 202.426 55.4585 200.917 55.4585C199.408 55.4585 198.185 56.6817 198.185 58.1903C198.185 59.6989 199.408 60.9221 200.917 60.9221Z" fill="#F8E799"/>
<path d="M388.047 138.779H351.167C348.15 138.779 345.704 141.225 345.704 144.242V265.808C345.704 268.825 348.15 271.271 351.167 271.271H388.047C391.064 271.271 393.51 268.825 393.51 265.808V144.242C393.51 141.225 391.064 138.779 388.047 138.779Z" fill="#FFF7A6"/>
<path d="M378.484 151.072H360.728C359.219 151.072 357.996 152.295 357.996 153.803V166.097C357.996 167.605 359.219 168.828 360.728 168.828H378.484C379.993 168.828 381.216 167.605 381.216 166.097V153.803C381.216 152.295 379.993 151.072 378.484 151.072Z" fill="#F9E080"/>
<path d="M378.484 174.292H360.728C359.219 174.292 357.996 175.515 357.996 177.024V188.634C357.996 190.143 359.219 191.366 360.728 191.366H378.484C379.993 191.366 381.216 190.143 381.216 188.634V177.024C381.216 175.515 379.993 174.292 378.484 174.292Z" fill="#595959"/>
<path d="M378.484 196.829H360.728C359.219 196.829 357.996 198.053 357.996 199.561V211.171C357.996 212.68 359.219 213.903 360.728 213.903H378.484C379.993 213.903 381.216 212.68 381.216 211.171V199.561C381.216 198.053 379.993 196.829 378.484 196.829Z" fill="#F9E080"/>
<path d="M378.484 241.904H360.728C359.219 241.904 357.996 243.127 357.996 244.636V256.246C357.996 257.755 359.219 258.978 360.728 258.978H378.484C379.993 258.978 381.216 257.755 381.216 256.246V244.636C381.216 243.127 379.993 241.904 378.484 241.904Z" fill="#F9E080"/>
<path d="M378.484 219.367H360.728C359.219 219.367 357.996 220.59 357.996 222.099V233.709C357.996 235.218 359.219 236.441 360.728 236.441H378.484C379.993 236.441 381.216 235.218 381.216 233.709V222.099C381.216 220.59 379.993 219.367 378.484 219.367Z" fill="#595959"/>
<path d="M337.508 78.679H189.307C187.798 78.679 186.575 79.902 186.575 81.4108V108.046C186.575 109.555 187.798 110.778 189.307 110.778H337.508C339.016 110.778 340.239 109.555 340.239 108.046V81.4108C340.239 79.902 339.016 78.679 337.508 78.679Z" fill="#FFF7A6"/>
<mask id="mask8_55_2402" style="mask-type:luminance" maskUnits="userSpaceOnUse" x="192" y="88" width="115" height="14">
<path d="M306.775 88.3086H192.722V101.148H306.775V88.3086Z" fill="white"/>
</mask>
<g mask="url(#mask8_55_2402)">
<path d="M304.726 88.3086H194.77C193.639 88.3086 192.722 89.2259 192.722 90.3574V91.0745C192.722 92.2061 193.639 93.1234 194.77 93.1234H304.726C305.857 93.1234 306.775 92.2061 306.775 91.0745V90.3574C306.775 89.2259 305.857 88.3086 304.726 88.3086Z" fill="#F9E080"/>
<path d="M267.229 96.3333H194.77C193.639 96.3333 192.721 97.2506 192.721 98.3821V99.0992C192.721 100.231 193.639 101.148 194.77 101.148H267.229C268.36 101.148 269.278 100.231 269.278 99.0992V98.3821C269.278 97.2506 268.36 96.3333 267.229 96.3333Z" fill="#F9E080"/>
</g>
<path fill-rule="evenodd" clip-rule="evenodd" d="M323.817 99.509C326.458 99.509 328.598 97.3686 328.598 94.7283C328.598 92.088 326.458 89.9476 323.817 89.9476C321.177 89.9476 319.037 92.088 319.037 94.7283C319.037 97.3686 321.177 99.509 323.817 99.509Z" fill="#F9E080"/>
<path fill-rule="evenodd" clip-rule="evenodd" d="M323.817 96.7772C324.949 96.7772 325.866 95.8599 325.866 94.7283C325.866 93.5966 324.949 92.6794 323.817 92.6794C322.685 92.6794 321.768 93.5966 321.768 94.7283C321.768 95.8599 322.685 96.7772 323.817 96.7772Z" fill="#F8E799"/>
<path d="M337.508 116.241H189.307C187.798 116.241 186.575 117.464 186.575 118.973V140.145C186.575 141.653 187.798 142.876 189.307 142.876H337.508C339.016 142.876 340.239 141.653 340.239 140.145V118.973C340.239 117.464 339.016 116.241 337.508 116.241Z" fill="#FFF7A6"/>
<mask id="mask9_55_2402" style="mask-type:luminance" maskUnits="userSpaceOnUse" x="192" y="124" width="115" height="11">
<path d="M306.774 124.232H192.722V134.886H306.774V124.232Z" fill="white"/>
</mask>
<g mask="url(#mask9_55_2402)">
<path d="M304.777 124.232H194.719C193.616 124.232 192.722 125.126 192.722 126.229C192.722 127.333 193.616 128.227 194.719 128.227H304.777C305.88 128.227 306.774 127.333 306.774 126.229C306.774 125.126 305.88 124.232 304.777 124.232Z" fill="#F9E080"/>
<path d="M267.28 130.891H194.719C193.616 130.891 192.721 131.785 192.721 132.888C192.721 133.992 193.616 134.886 194.719 134.886H267.28C268.383 134.886 269.277 133.992 269.277 132.888C269.277 131.785 268.383 130.891 267.28 130.891Z" fill="#F9E080"/>
</g>
<path fill-rule="evenodd" clip-rule="evenodd" d="M323.817 134.34C326.458 134.34 328.598 132.199 328.598 129.559C328.598 126.919 326.458 124.778 323.817 124.778C321.177 124.778 319.037 126.919 319.037 129.559C319.037 132.199 321.177 134.34 323.817 134.34Z" fill="#F9E080"/>
<path fill-rule="evenodd" clip-rule="evenodd" d="M323.817 131.608C324.948 131.608 325.866 130.691 325.866 129.559C325.866 128.427 324.948 127.51 323.817 127.51C322.685 127.51 321.768 128.427 321.768 129.559C321.768 130.691 322.685 131.608 323.817 131.608Z" fill="#F8E799"/>
<path d="M337.508 148.34H189.307C187.798 148.34 186.575 149.563 186.575 151.072V172.243C186.575 173.752 187.798 174.975 189.307 174.975H337.508C339.016 174.975 340.239 173.752 340.239 172.243V151.072C340.239 149.563 339.016 148.34 337.508 148.34Z" fill="#FFF7A6"/>
<mask id="mask10_55_2402" style="mask-type:luminance" maskUnits="userSpaceOnUse" x="192" y="156" width="115" height="11">
<path d="M306.774 156.33H192.722V166.984H306.774V156.33Z" fill="white"/>
</mask>
<g mask="url(#mask10_55_2402)">
<path d="M304.777 156.33H194.719C193.616 156.33 192.722 157.225 192.722 158.328C192.722 159.431 193.616 160.326 194.719 160.326H304.777C305.88 160.326 306.774 159.431 306.774 158.328C306.774 157.225 305.88 156.33 304.777 156.33Z" fill="#F9E080"/>
<path d="M267.28 162.989H194.719C193.616 162.989 192.721 163.884 192.721 164.987C192.721 166.09 193.616 166.985 194.719 166.985H267.28C268.383 166.985 269.277 166.09 269.277 164.987C269.277 163.884 268.383 162.989 267.28 162.989Z" fill="#F9E080"/>
</g>
<path fill-rule="evenodd" clip-rule="evenodd" d="M323.817 166.438C326.458 166.438 328.598 164.298 328.598 161.657C328.598 159.017 326.458 156.877 323.817 156.877C321.177 156.877 319.037 159.017 319.037 161.657C319.037 164.298 321.177 166.438 323.817 166.438Z" fill="#F9E080"/>
<path fill-rule="evenodd" clip-rule="evenodd" d="M323.817 163.706C324.948 163.706 325.866 162.789 325.866 161.657C325.866 160.526 324.948 159.609 323.817 159.609C322.685 159.609 321.768 160.526 321.768 161.657C321.768 162.789 322.685 163.706 323.817 163.706Z" fill="#595959"/>
<path d="M337.508 244.636H189.307C187.798 244.636 186.575 245.859 186.575 247.368V268.54C186.575 270.048 187.798 271.271 189.307 271.271H337.508C339.016 271.271 340.239 270.048 340.239 268.54V247.368C340.239 245.859 339.016 244.636 337.508 244.636Z" fill="#FFF7A6"/>
<mask id="mask11_55_2402" style="mask-type:luminance" maskUnits="userSpaceOnUse" x="192" y="252" width="115" height="12">
<path d="M306.774 252.627H192.722V263.281H306.774V252.627Z" fill="white"/>
</mask>
<g mask="url(#mask11_55_2402)">
<path d="M304.777 252.627H194.719C193.616 252.627 192.722 253.521 192.722 254.624C192.722 255.728 193.616 256.622 194.719 256.622H304.777C305.88 256.622 306.774 255.728 306.774 254.624C306.774 253.521 305.88 252.627 304.777 252.627Z" fill="#F9E080"/>
<path d="M267.28 259.286H194.719C193.616 259.286 192.721 260.18 192.721 261.283C192.721 262.386 193.616 263.281 194.719 263.281H267.28C268.383 263.281 269.277 262.386 269.277 261.283C269.277 260.18 268.383 259.286 267.28 259.286Z" fill="#F9E080"/>
</g>
<path fill-rule="evenodd" clip-rule="evenodd" d="M323.817 262.734C326.458 262.734 328.598 260.594 328.598 257.954C328.598 255.313 326.458 253.173 323.817 253.173C321.177 253.173 319.037 255.313 319.037 257.954C319.037 260.594 321.177 262.734 323.817 262.734Z" fill="#F9E080"/>
<path fill-rule="evenodd" clip-rule="evenodd" d="M323.817 260.003C324.948 260.003 325.866 259.085 325.866 257.954C325.866 256.822 324.948 255.905 323.817 255.905C322.685 255.905 321.768 256.822 321.768 257.954C321.768 259.085 322.685 260.003 323.817 260.003Z" fill="#F8E799"/>
<path d="M337.508 212.537H189.307C187.798 212.537 186.575 213.761 186.575 215.269V236.441C186.575 237.95 187.798 239.173 189.307 239.173H337.508C339.016 239.173 340.239 237.95 340.239 236.441V215.269C340.239 213.761 339.016 212.537 337.508 212.537Z" fill="#FFF7A6"/>
<mask id="mask12_55_2402" style="mask-type:luminance" maskUnits="userSpaceOnUse" x="192" y="220" width="115" height="12">
<path d="M306.774 220.528H192.722V231.182H306.774V220.528Z" fill="white"/>
</mask>
<g mask="url(#mask12_55_2402)">
<path d="M304.777 220.528H194.719C193.616 220.528 192.722 221.422 192.722 222.526C192.722 223.629 193.616 224.523 194.719 224.523H304.777C305.88 224.523 306.774 223.629 306.774 222.526C306.774 221.422 305.88 220.528 304.777 220.528Z" fill="#F9E080"/>
<path d="M267.28 227.187H194.719C193.616 227.187 192.721 228.081 192.721 229.184C192.721 230.288 193.616 231.182 194.719 231.182H267.28C268.383 231.182 269.277 230.288 269.277 229.184C269.277 228.081 268.383 227.187 267.28 227.187Z" fill="#F9E080"/>
</g>
<path fill-rule="evenodd" clip-rule="evenodd" d="M323.817 230.636C326.458 230.636 328.598 228.495 328.598 225.855C328.598 223.215 326.458 221.074 323.817 221.074C321.177 221.074 319.037 223.215 319.037 225.855C319.037 228.495 321.177 230.636 323.817 230.636Z" fill="#F9E080"/>
<path fill-rule="evenodd" clip-rule="evenodd" d="M323.817 227.904C324.948 227.904 325.866 226.987 325.866 225.855C325.866 224.723 324.948 223.806 323.817 223.806C322.685 223.806 321.768 224.723 321.768 225.855C321.768 226.987 322.685 227.904 323.817 227.904Z" fill="#F8E799"/>
<path d="M337.508 180.439H189.307C187.798 180.439 186.575 181.662 186.575 183.171V204.342C186.575 205.851 187.798 207.074 189.307 207.074H337.508C339.016 207.074 340.239 205.851 340.239 204.342V183.171C340.239 181.662 339.016 180.439 337.508 180.439Z" fill="#FFF7A6"/>
<mask id="mask13_55_2402" style="mask-type:luminance" maskUnits="userSpaceOnUse" x="192" y="188" width="115" height="12">
<path d="M306.774 188.429H192.722V199.083H306.774V188.429Z" fill="white"/>
</mask>
<g mask="url(#mask13_55_2402)">
<path d="M304.777 188.429H194.719C193.616 188.429 192.722 189.324 192.722 190.427C192.722 191.53 193.616 192.424 194.719 192.424H304.777C305.88 192.424 306.774 191.53 306.774 190.427C306.774 189.324 305.88 188.429 304.777 188.429Z" fill="#F9E080"/>
<path d="M267.28 195.088H194.719C193.616 195.088 192.721 195.982 192.721 197.086C192.721 198.189 193.616 199.083 194.719 199.083H267.28C268.383 199.083 269.277 198.189 269.277 197.086C269.277 195.982 268.383 195.088 267.28 195.088Z" fill="#F9E080"/>
</g>
<path fill-rule="evenodd" clip-rule="evenodd" d="M323.817 198.537C326.458 198.537 328.598 196.397 328.598 193.756C328.598 191.116 326.458 188.976 323.817 188.976C321.177 188.976 319.037 191.116 319.037 193.756C319.037 196.397 321.177 198.537 323.817 198.537Z" fill="#F9E080"/>
<path fill-rule="evenodd" clip-rule="evenodd" d="M323.817 195.805C324.948 195.805 325.866 194.888 325.866 193.756C325.866 192.625 324.948 191.707 323.817 191.707C322.685 191.707 321.768 192.625 321.768 193.756C321.768 194.888 322.685 195.805 323.817 195.805Z" fill="#F8E799"/>
<path fill-rule="evenodd" clip-rule="evenodd" d="M461.112 164.988C458.418 163.161 454.836 162.682 451.613 162.682C439.022 162.682 427.187 167.353 416.963 174.314C411.361 178.128 406.349 182.985 401.925 188.041C399.371 190.961 397.094 194.118 395.482 197.631C394.394 200.001 393.647 202.471 393.141 205.019C392.524 208.123 392.034 211.291 391.813 214.448C391.725 215.691 391.003 222.286 393.07 222.398C393.058 222.56 393.055 222.715 393.068 222.854C388.58 229.871 385.808 238.093 383.237 245.889C381 252.674 379.007 259.515 377.713 266.534C376.009 275.773 374.891 285.153 374.358 294.526C374.244 296.54 374.166 298.555 374.098 300.572C374.041 302.292 373.983 304.013 373.926 305.734C373.863 307.662 373.524 309.881 373.831 311.798C374.098 313.467 375.542 313.214 375.606 311.553C375.683 309.547 375.67 307.537 375.759 305.53C375.875 302.866 375.996 300.202 376.126 297.538C377.034 279.036 380.438 260.805 386.722 243.328C389.265 236.255 392.179 229.56 395.924 223.017C399.217 217.265 403.178 211.695 407.226 206.509C411.161 201.468 415.252 196.545 420.073 192.274C423.986 188.809 428.29 185.79 432.714 182.981C438.333 179.413 443.941 175.932 450.027 173.193C453.192 171.77 456.415 170.496 459.604 169.129C460.177 168.884 460.792 168.645 461.344 168.361C463.185 167.411 462.579 165.982 461.112 164.988Z" fill="#F3D27D"/>
<path fill-rule="evenodd" clip-rule="evenodd" d="M410.46 229.611C415.566 229.611 420.111 230.275 424.815 232.304C428.877 234.056 432.579 236.374 436.172 238.899C441.227 242.449 445.208 246.581 447.996 252.056C449.661 255.327 450.882 259.955 449.764 263.523C448.447 267.725 444.83 271.23 440.066 270.489C437.121 270.032 434.421 268.082 432.182 266.247C429.504 264.051 427.36 261.411 425.59 258.48C422.702 253.697 421.006 248.291 418.553 243.293C417.389 240.921 416.264 238.533 414.87 236.278C414.18 235.162 413.445 234.057 412.398 233.227C411.838 232.783 409.476 232.015 410.379 231.019C397.137 231.192 385.405 241.363 382.862 253.952C382.626 255.126 382.441 256.308 382.245 257.489C382.122 258.234 382.172 260.984 381.505 261.46C380.036 262.51 380.653 259.319 380.717 258.859C380.88 257.672 381.053 256.485 381.236 255.3C382.229 248.857 385.097 242.868 389.88 238.273C395.35 233.019 402.731 229.611 410.46 229.611Z" fill="#E4A400"/>
<path fill-rule="evenodd" clip-rule="evenodd" d="M42.4303 213.723C55.1785 235.11 70.0264 255.819 78.943 279.202C78.5838 276.446 78.2027 273.692 77.7758 270.943C75.5139 256.369 72.7015 241.9 69.7471 227.45C68.2425 220.092 66.6506 212.761 65.0183 205.431C64.1407 201.493 63.2734 197.554 62.3773 193.621C62.1601 192.668 61.9737 191.003 61.7026 189.317C70.3679 217.753 78.7245 246.21 84.8369 275.329C85.6387 279.151 86.3216 282.966 86.8809 286.774C87.0722 285.906 87.2607 285.037 87.4662 284.17C89.9399 273.784 93.6497 263.481 98.067 253.77C100.179 249.126 102.604 244.584 105.46 240.351C107.241 237.713 111.441 234.577 113.065 231.874C104.181 248.171 100.972 268.561 95.842 286.278C94.5901 290.601 93.3301 294.918 92.0953 299.241C99.8318 283.726 111.835 270.978 128.525 265.455C108.323 278.802 96.206 302.177 88.0406 326.085C88.014 326.368 87.9819 326.652 87.9539 326.936C90.3572 322.376 93.3833 318.251 97.4851 315.363C106.265 309.178 116.004 310.979 124.52 316.285C117.836 312.036 105.757 315.905 100.133 320.223C96.1069 323.314 92.6662 327.461 89.6783 331.508C88.9626 332.477 87.9853 333.609 86.9533 334.816C85.5069 344.207 83.1493 353.534 79.811 362.787C80.3622 360.131 79.964 355.883 80.117 353.904C80.1334 353.69 80.147 353.475 80.1634 353.262C79.656 355.287 79.1656 357.29 78.6937 359.261C79.6321 355.5 80.1416 351.575 80.5397 347.609C80.6422 345.905 80.7426 344.2 80.8478 342.496C80.8143 339.261 80.6811 336.014 80.4557 332.761C79.6574 329.601 78.7627 326.619 78.0244 324.139C75.363 315.192 71.4599 306.621 66.6567 298.624C62.2742 291.327 57.028 284.717 50.9719 278.739C47.7071 275.517 44.2903 272.449 40.9217 269.338C39.7035 268.214 37.5262 265.448 35.6432 264.007C49.3572 271.568 63.4728 279.747 73.4773 291.929C72.304 287.425 71.0303 282.985 69.6829 278.633C62.8458 256.556 54.2135 233.677 42.4303 213.723Z" fill="#F9E080"/>
<path fill-rule="evenodd" clip-rule="evenodd" d="M56.1313 334.786C56.1313 359.303 58.0728 379.178 84.1324 379.178C110.192 379.178 112.133 359.303 112.133 334.786" fill="#595959"/>
<path fill-rule="evenodd" clip-rule="evenodd" d="M75.9421 36.3265C75.9393 36.3335 75.9365 36.3406 75.9323 36.349C75.9365 36.342 75.9421 36.3138 75.9421 36.3265Z" fill="#595959"/>
<path fill-rule="evenodd" clip-rule="evenodd" d="M75.9357 36.3366C75.9357 36.338 75.9343 36.3407 75.9343 36.3435C75.9343 36.3366 75.9467 36.3159 75.9357 36.3366Z" fill="#595959"/>
<path fill-rule="evenodd" clip-rule="evenodd" d="M75.9827 36.2212C75.9731 36.2485 75.9608 36.2745 75.9499 36.3018C75.9554 36.2881 75.9608 36.2772 75.9663 36.2635C75.8243 36.6187 75.9144 36.3878 75.9827 36.2212Z" fill="#595959"/>
<path fill-rule="evenodd" clip-rule="evenodd" d="M75.9519 36.3038C75.9464 36.3162 75.9409 36.33 75.9354 36.3424C75.8954 36.4194 75.9519 36.3038 75.9519 36.3038Z" fill="#595959"/>
<path fill-rule="evenodd" clip-rule="evenodd" d="M75.9302 36.3468C75.922 36.3632 75.9684 36.2839 75.9302 36.3468V36.3468Z" fill="#595959"/>
<path fill-rule="evenodd" clip-rule="evenodd" d="M75.9359 36.3385L75.9398 36.3345C75.9378 36.3365 75.9379 36.3385 75.9359 36.3385Z" fill="#595959"/>
<path d="M105.304 0.822388H45.887C44.3783 0.822388 43.1552 2.04546 43.1552 3.55419V41.1165C43.1552 42.6253 44.3783 43.8483 45.887 43.8483H105.304C106.813 43.8483 108.036 42.6253 108.036 41.1165V3.55419C108.036 2.04546 106.813 0.822388 105.304 0.822388Z" fill="#F9E080"/>
<path fill-rule="evenodd" clip-rule="evenodd" d="M67.7413 13.1155L48.6187 43.8483H86.8639L67.7413 13.1155Z" fill="#595959"/>
<path fill-rule="evenodd" clip-rule="evenodd" d="M86.5224 21.3109L69.7901 43.8483H103.255L86.5224 21.3109Z" fill="#595959"/>
<path fill-rule="evenodd" clip-rule="evenodd" d="M93.6937 21.311C97.0886 21.311 99.8402 18.5591 99.8402 15.1644C99.8402 11.7697 97.0886 9.01782 93.6937 9.01782C90.2987 9.01782 87.5471 11.7697 87.5471 15.1644C87.5471 18.5591 90.2987 21.311 93.6937 21.311Z" fill="#FFF7A6"/>
<path fill-rule="evenodd" clip-rule="evenodd" d="M401.7 327.947C401.703 327.954 401.706 327.961 401.71 327.969C401.706 327.962 401.7 327.934 401.7 327.947Z" fill="#595959"/>
<path fill-rule="evenodd" clip-rule="evenodd" d="M401.707 327.957C401.707 327.958 401.708 327.961 401.708 327.964C401.708 327.957 401.696 327.936 401.707 327.957Z" fill="#595959"/>
<path fill-rule="evenodd" clip-rule="evenodd" d="M401.659 327.841C401.669 327.869 401.681 327.895 401.692 327.922C401.687 327.908 401.681 327.897 401.676 327.884C401.818 328.239 401.727 328.008 401.659 327.841Z" fill="#595959"/>
<path fill-rule="evenodd" clip-rule="evenodd" d="M401.688 327.924C401.694 327.936 401.699 327.95 401.705 327.963C401.745 328.04 401.688 327.924 401.688 327.924Z" fill="#595959"/>
<path fill-rule="evenodd" clip-rule="evenodd" d="M401.71 327.967C401.671 327.904 401.718 327.984 401.71 327.967V327.967Z" fill="#595959"/>
<path fill-rule="evenodd" clip-rule="evenodd" d="M401.707 327.959L401.703 327.955C401.705 327.957 401.705 327.959 401.707 327.959Z" fill="#595959"/>
<path d="M355.947 275.369H447.463C448.971 275.369 450.194 276.592 450.194 278.101V336.835C450.194 338.343 448.971 339.566 447.463 339.566H355.947C354.438 339.566 353.215 338.343 353.215 336.835V278.101C353.215 276.592 354.438 275.369 355.947 275.369Z" fill="#F9E080"/>
<path fill-rule="evenodd" clip-rule="evenodd" d="M414.186 293.809L442.225 339.566H386.147L414.186 293.809Z" fill="#595959"/>
<path fill-rule="evenodd" clip-rule="evenodd" d="M385.277 306.066L410.065 339.566H360.489L385.277 306.066Z" fill="#595959"/>
<path fill-rule="evenodd" clip-rule="evenodd" d="M374.727 306.102C369.635 306.102 365.507 301.974 365.507 296.882C365.507 291.79 369.635 287.662 374.727 287.662C379.819 287.662 383.947 291.79 383.947 296.882C383.947 301.974 379.819 306.102 374.727 306.102Z" fill="#FFF7A6"/>
<path fill-rule="evenodd" clip-rule="evenodd" d="M223.103 145.463C227.526 148.129 231.872 149.417 233.911 148.891C239.026 147.573 239.496 128.861 235.538 121.485C231.581 114.108 211.236 110.893 210.21 125.508C209.855 130.581 211.984 135.108 215.131 138.802L209.489 165.102H225.879L223.103 145.463Z" fill="#B28B67"/>
<path fill-rule="evenodd" clip-rule="evenodd" d="M213.872 142.092C211.815 132.939 205.954 126.701 206.849 122.61C207.745 118.519 211.62 117.522 211.62 117.522C211.62 117.522 213.625 109.412 224.552 110.623C235.478 111.834 242.147 116.372 239.267 126.357C236.62 126.357 233.423 125.399 229.005 127.04C226.901 127.82 225.996 131.882 225.996 131.882H223.999C223.999 131.882 221.091 127.062 218.265 128.34C215.439 129.617 216.981 134.546 216.981 134.546L215.997 142.092H213.872Z" fill="#262626"/>
<path fill-rule="evenodd" clip-rule="evenodd" d="M179.864 250.471H232.625L239.539 335.157H161L179.864 250.471Z" fill="#484848"/>
<path fill-rule="evenodd" clip-rule="evenodd" d="M179.864 250.471H196.092L205.804 335.157H161L179.864 250.471Z" fill="black" fill-opacity="0.1"/>
<path fill-rule="evenodd" clip-rule="evenodd" d="M261.614 267.249C255.685 279.823 246.421 310.347 246.421 310.347L254.286 313.941C254.286 313.941 274.243 281.854 286.439 259.92C285.87 264.858 285.292 270.417 284.756 276.261C283.485 290.105 284.755 320.014 285.439 328.653C285.868 334.084 293.246 332.946 293.935 328.64C294.052 327.91 294.527 325.349 295.236 321.529C298.715 302.794 307.818 253.762 307.834 241.755C307.84 236.925 298.403 232.585 292.777 235.963C288.913 231.84 281.601 229.464 277.399 236.274C274.728 240.604 268.382 252.896 261.614 267.249Z" fill="#B28B67"/>
<path fill-rule="evenodd" clip-rule="evenodd" d="M246.983 299.046L273.978 235.096C280.445 224.693 298.577 237.213 296.372 243.247C291.365 256.945 265.9 301.292 264.408 305.374L246.983 299.046Z" fill="#545454"/>
<path fill-rule="evenodd" clip-rule="evenodd" d="M247.505 306.599C247.032 305.955 246.116 305.802 245.504 306.317C244.387 307.256 242.782 308.702 242.202 309.706C241.279 311.306 240.04 314.683 240.04 314.683C241.895 315.754 273.398 333.943 273.398 333.943C273.398 333.943 277.181 330.395 274.577 328.435C271.973 326.474 270.28 325.128 270.28 325.128L258.766 309.264C258.539 308.953 258.101 308.889 257.796 309.124L255.404 310.966C255.404 310.966 252.112 310.679 250.49 309.743C249.503 309.173 248.297 307.68 247.505 306.599Z" fill="#E4E4E4"/>
<path fill-rule="evenodd" clip-rule="evenodd" d="M285.605 324.424C284.873 324.102 284.003 324.428 283.73 325.18C283.233 326.55 282.566 328.607 282.566 329.766C282.566 331.613 283.181 335.157 283.181 335.157C285.324 335.157 321.701 335.157 321.701 335.157C321.701 335.157 323.203 330.193 319.968 329.797C316.733 329.402 314.593 329.083 314.593 329.083L296.689 321.101C296.338 320.944 295.927 321.109 295.78 321.465L294.629 324.256C294.629 324.256 291.634 325.654 289.762 325.654C288.622 325.654 286.832 324.963 285.605 324.424Z" fill="#E4E4E4"/>
<path fill-rule="evenodd" clip-rule="evenodd" d="M309.725 246.669C309.725 264.813 301.109 307.136 301.104 311.131L282.564 311.145C282.564 311.145 286.635 254.499 285.451 253.889C284.267 253.279 236.927 258.615 222.728 258.615C202.255 258.615 193.785 245.704 193.098 221.787H233.656C241.914 222.671 284.988 231.359 300.985 234.345C307.834 235.624 309.725 241.671 309.725 246.669Z" fill="#595959"/>
<path fill-rule="evenodd" clip-rule="evenodd" d="M288.274 143.905L262.387 151.676L268.997 162.686L289.124 150.841C298.52 150.281 302.959 149.355 302.442 148.061C302.006 146.97 300.968 146.784 300.013 146.613C299.268 146.48 298.574 146.355 298.251 145.819C297.516 144.594 300.094 141.405 302.669 138.483C305.245 135.561 303.184 135.425 301.939 135.659C297.659 137.397 293.103 140.146 288.274 143.905ZM281.885 213.313L260.1 197.316L255.284 209.22L276.857 218.166C282.959 225.333 286.37 228.32 287.092 227.129C287.701 226.124 287.225 225.184 286.787 224.317C286.445 223.643 286.126 223.013 286.361 222.433C286.897 221.108 290.996 221.248 294.879 221.547C298.762 221.845 297.631 220.117 296.694 219.264C292.73 216.891 287.794 214.907 281.885 213.313Z" fill="#B28B67"/>
<path fill-rule="evenodd" clip-rule="evenodd" d="M226.263 154.234C238.125 176.354 255.28 193.311 280.151 210.939L270.734 221.557C242.965 211.237 228.31 205.011 221.113 184.112C219.307 178.866 218.045 162.146 216.961 153.348L226.263 154.234Z" fill="#948654"/>
<path fill-rule="evenodd" clip-rule="evenodd" d="M193.098 227.934H245.685C245.685 227.934 227.817 173.44 227.43 153.131C227.417 152.441 226.142 151.225 225.578 151.384C219.391 153.131 212.338 150.077 212.338 150.077C199.871 170.127 195.56 194.814 193.098 227.934Z" fill="#F2F2F2"/>
<path fill-rule="evenodd" clip-rule="evenodd" d="M225.529 180.667C233.742 215.898 233.364 244.738 215.231 244.738H187.191C182.738 214.81 194.442 173.314 205.293 152.383C205.708 151.584 206.589 150.077 208.668 150.077H216.815C216.819 150.088 216.822 150.099 216.826 150.109C219.277 150.13 221.978 150.219 224.901 150.316C239.954 150.816 260.943 151.513 284.561 143.931L287.346 157.845C266.029 171.555 244.443 182.175 225.529 180.667Z" fill="#A29355"/>
</svg>
